M48
; DRILL file {KiCad (7.0.0-0)} date Sunday, 28 May 2023 at 12:49:49
; FORMAT={-:-/ absolute / metric / decimal}
; #@! TF.CreationDate,2023-05-28T12:49:49+02:00
; #@! TF.GenerationSoftware,Kicad,Pcbnew,(7.0.0-0)
; #@! TF.FileFunction,Plated,1,2,PTH
FMAT,2
METRIC
; #@! TA.AperFunction,Plated,PTH,ComponentDrill
T1C0.800
; #@! TA.AperFunction,Plated,PTH,ComponentDrill
T2C1.000
%
G90
G05
T1
X58.42Y-108.76
X58.42Y-110.76
X58.42Y-112.76
X58.42Y-114.76
X58.42Y-121.0
X58.42Y-123.0
X58.42Y-125.0
X58.42Y-127.0
X58.42Y-133.7
X58.42Y-135.7
X58.42Y-137.7
X58.42Y-139.7
X88.9Y-108.87
X88.9Y-110.87
X88.9Y-112.87
X88.9Y-114.87
X88.9Y-121.46
X88.9Y-123.46
X88.9Y-125.46
X88.9Y-127.46
X88.9Y-134.16
X88.9Y-136.16
X88.9Y-138.16
X88.9Y-140.16
T2
X60.96Y-102.87
X63.5Y-102.87
X66.04Y-102.87
X68.58Y-102.87
X71.12Y-102.87
X73.66Y-102.87
X76.2Y-102.87
X78.74Y-102.87
X81.28Y-102.87
X83.82Y-102.87
X86.36Y-102.87
T0
M30
