%TF.GenerationSoftware,KiCad,Pcbnew,(7.0.0-0)*%
%TF.CreationDate,2023-05-28T12:49:50+02:00*%
%TF.ProjectId,bms-breakout-board,626d732d-6272-4656-916b-6f75742d626f,rev?*%
%TF.SameCoordinates,Original*%
%TF.FileFunction,Drillmap*%
%TF.FilePolarity,Positive*%
%FSLAX45Y45*%
G04 Gerber Fmt 4.5, Leading zero omitted, Abs format (unit mm)*
G04 Created by KiCad (PCBNEW (7.0.0-0)) date 2023-05-28 12:49:50*
%MOMM*%
%LPD*%
G01*
G04 APERTURE LIST*
%ADD10C,0.100000*%
%ADD11C,0.200000*%
%ADD12C,0.080000*%
G04 APERTURE END LIST*
D10*
X9520000Y-10150000D02*
G75*
G03*
X9520000Y-10150000I-170000J0D01*
G01*
X5000000Y-15000000D02*
X5000000Y-9800000D01*
X9700000Y-15000000D02*
X5000000Y-15000000D01*
X5000000Y-9800000D02*
X9700000Y-9800000D01*
X9700000Y-9800000D02*
X9700000Y-15000000D01*
X5520000Y-14650000D02*
G75*
G03*
X5520000Y-14650000I-170000J0D01*
G01*
X9520000Y-14650000D02*
G75*
G03*
X9520000Y-14650000I-170000J0D01*
G01*
X5520000Y-10150000D02*
G75*
G03*
X5520000Y-10150000I-170000J0D01*
G01*
D11*
D12*
X5802000Y-10836000D02*
X5882000Y-10916000D01*
X5882000Y-10836000D02*
X5802000Y-10916000D01*
X5802000Y-11036000D02*
X5882000Y-11116000D01*
X5882000Y-11036000D02*
X5802000Y-11116000D01*
X5802000Y-11236000D02*
X5882000Y-11316000D01*
X5882000Y-11236000D02*
X5802000Y-11316000D01*
X5802000Y-11436000D02*
X5882000Y-11516000D01*
X5882000Y-11436000D02*
X5802000Y-11516000D01*
X5802000Y-12060000D02*
X5882000Y-12140000D01*
X5882000Y-12060000D02*
X5802000Y-12140000D01*
X5802000Y-12260000D02*
X5882000Y-12340000D01*
X5882000Y-12260000D02*
X5802000Y-12340000D01*
X5802000Y-12460000D02*
X5882000Y-12540000D01*
X5882000Y-12460000D02*
X5802000Y-12540000D01*
X5802000Y-12660000D02*
X5882000Y-12740000D01*
X5882000Y-12660000D02*
X5802000Y-12740000D01*
X5802000Y-13330000D02*
X5882000Y-13410000D01*
X5882000Y-13330000D02*
X5802000Y-13410000D01*
X5802000Y-13530000D02*
X5882000Y-13610000D01*
X5882000Y-13530000D02*
X5802000Y-13610000D01*
X5802000Y-13730000D02*
X5882000Y-13810000D01*
X5882000Y-13730000D02*
X5802000Y-13810000D01*
X5802000Y-13930000D02*
X5882000Y-14010000D01*
X5882000Y-13930000D02*
X5802000Y-14010000D01*
X8850000Y-10847000D02*
X8930000Y-10927000D01*
X8930000Y-10847000D02*
X8850000Y-10927000D01*
X8850000Y-11047000D02*
X8930000Y-11127000D01*
X8930000Y-11047000D02*
X8850000Y-11127000D01*
X8850000Y-11247000D02*
X8930000Y-11327000D01*
X8930000Y-11247000D02*
X8850000Y-11327000D01*
X8850000Y-11447000D02*
X8930000Y-11527000D01*
X8930000Y-11447000D02*
X8850000Y-11527000D01*
X8850000Y-12106000D02*
X8930000Y-12186000D01*
X8930000Y-12106000D02*
X8850000Y-12186000D01*
X8850000Y-12306000D02*
X8930000Y-12386000D01*
X8930000Y-12306000D02*
X8850000Y-12386000D01*
X8850000Y-12506000D02*
X8930000Y-12586000D01*
X8930000Y-12506000D02*
X8850000Y-12586000D01*
X8850000Y-12706000D02*
X8930000Y-12786000D01*
X8930000Y-12706000D02*
X8850000Y-12786000D01*
X8850000Y-13376000D02*
X8930000Y-13456000D01*
X8930000Y-13376000D02*
X8850000Y-13456000D01*
X8850000Y-13576000D02*
X8930000Y-13656000D01*
X8930000Y-13576000D02*
X8850000Y-13656000D01*
X8850000Y-13776000D02*
X8930000Y-13856000D01*
X8930000Y-13776000D02*
X8850000Y-13856000D01*
X8850000Y-13976000D02*
X8930000Y-14056000D01*
X8930000Y-13976000D02*
X8850000Y-14056000D01*
D10*
X6146000Y-10287000D02*
G75*
G03*
X6146000Y-10287000I-50000J0D01*
G01*
X6400000Y-10287000D02*
G75*
G03*
X6400000Y-10287000I-50000J0D01*
G01*
X6654000Y-10287000D02*
G75*
G03*
X6654000Y-10287000I-50000J0D01*
G01*
X6908000Y-10287000D02*
G75*
G03*
X6908000Y-10287000I-50000J0D01*
G01*
X7162000Y-10287000D02*
G75*
G03*
X7162000Y-10287000I-50000J0D01*
G01*
X7416000Y-10287000D02*
G75*
G03*
X7416000Y-10287000I-50000J0D01*
G01*
X7670000Y-10287000D02*
G75*
G03*
X7670000Y-10287000I-50000J0D01*
G01*
X7924000Y-10287000D02*
G75*
G03*
X7924000Y-10287000I-50000J0D01*
G01*
X8178000Y-10287000D02*
G75*
G03*
X8178000Y-10287000I-50000J0D01*
G01*
X8432000Y-10287000D02*
G75*
G03*
X8432000Y-10287000I-50000J0D01*
G01*
X8686000Y-10287000D02*
G75*
G03*
X8686000Y-10287000I-50000J0D01*
G01*
D11*
X5242619Y-15298476D02*
X5242619Y-15098476D01*
X5242619Y-15098476D02*
X5290238Y-15098476D01*
X5290238Y-15098476D02*
X5318810Y-15108000D01*
X5318810Y-15108000D02*
X5337857Y-15127048D01*
X5337857Y-15127048D02*
X5347381Y-15146095D01*
X5347381Y-15146095D02*
X5356905Y-15184190D01*
X5356905Y-15184190D02*
X5356905Y-15212762D01*
X5356905Y-15212762D02*
X5347381Y-15250857D01*
X5347381Y-15250857D02*
X5337857Y-15269905D01*
X5337857Y-15269905D02*
X5318810Y-15288952D01*
X5318810Y-15288952D02*
X5290238Y-15298476D01*
X5290238Y-15298476D02*
X5242619Y-15298476D01*
X5442619Y-15298476D02*
X5442619Y-15165143D01*
X5442619Y-15203238D02*
X5452143Y-15184190D01*
X5452143Y-15184190D02*
X5461667Y-15174667D01*
X5461667Y-15174667D02*
X5480714Y-15165143D01*
X5480714Y-15165143D02*
X5499762Y-15165143D01*
X5566429Y-15298476D02*
X5566429Y-15165143D01*
X5566429Y-15098476D02*
X5556905Y-15108000D01*
X5556905Y-15108000D02*
X5566429Y-15117524D01*
X5566429Y-15117524D02*
X5575952Y-15108000D01*
X5575952Y-15108000D02*
X5566429Y-15098476D01*
X5566429Y-15098476D02*
X5566429Y-15117524D01*
X5690238Y-15298476D02*
X5671190Y-15288952D01*
X5671190Y-15288952D02*
X5661667Y-15269905D01*
X5661667Y-15269905D02*
X5661667Y-15098476D01*
X5795000Y-15298476D02*
X5775952Y-15288952D01*
X5775952Y-15288952D02*
X5766428Y-15269905D01*
X5766428Y-15269905D02*
X5766428Y-15098476D01*
X5991190Y-15298476D02*
X5991190Y-15098476D01*
X5991190Y-15098476D02*
X6057857Y-15241333D01*
X6057857Y-15241333D02*
X6124524Y-15098476D01*
X6124524Y-15098476D02*
X6124524Y-15298476D01*
X6305476Y-15298476D02*
X6305476Y-15193714D01*
X6305476Y-15193714D02*
X6295952Y-15174667D01*
X6295952Y-15174667D02*
X6276905Y-15165143D01*
X6276905Y-15165143D02*
X6238809Y-15165143D01*
X6238809Y-15165143D02*
X6219762Y-15174667D01*
X6305476Y-15288952D02*
X6286428Y-15298476D01*
X6286428Y-15298476D02*
X6238809Y-15298476D01*
X6238809Y-15298476D02*
X6219762Y-15288952D01*
X6219762Y-15288952D02*
X6210238Y-15269905D01*
X6210238Y-15269905D02*
X6210238Y-15250857D01*
X6210238Y-15250857D02*
X6219762Y-15231809D01*
X6219762Y-15231809D02*
X6238809Y-15222286D01*
X6238809Y-15222286D02*
X6286428Y-15222286D01*
X6286428Y-15222286D02*
X6305476Y-15212762D01*
X6400714Y-15165143D02*
X6400714Y-15365143D01*
X6400714Y-15174667D02*
X6419762Y-15165143D01*
X6419762Y-15165143D02*
X6457857Y-15165143D01*
X6457857Y-15165143D02*
X6476905Y-15174667D01*
X6476905Y-15174667D02*
X6486428Y-15184190D01*
X6486428Y-15184190D02*
X6495952Y-15203238D01*
X6495952Y-15203238D02*
X6495952Y-15260381D01*
X6495952Y-15260381D02*
X6486428Y-15279428D01*
X6486428Y-15279428D02*
X6476905Y-15288952D01*
X6476905Y-15288952D02*
X6457857Y-15298476D01*
X6457857Y-15298476D02*
X6419762Y-15298476D01*
X6419762Y-15298476D02*
X6400714Y-15288952D01*
X6581667Y-15279428D02*
X6591190Y-15288952D01*
X6591190Y-15288952D02*
X6581667Y-15298476D01*
X6581667Y-15298476D02*
X6572143Y-15288952D01*
X6572143Y-15288952D02*
X6581667Y-15279428D01*
X6581667Y-15279428D02*
X6581667Y-15298476D01*
X6581667Y-15174667D02*
X6591190Y-15184190D01*
X6591190Y-15184190D02*
X6581667Y-15193714D01*
X6581667Y-15193714D02*
X6572143Y-15184190D01*
X6572143Y-15184190D02*
X6581667Y-15174667D01*
X6581667Y-15174667D02*
X6581667Y-15193714D01*
D12*
X4915000Y-15605000D02*
X4995000Y-15685000D01*
X4995000Y-15605000D02*
X4915000Y-15685000D01*
D11*
X5280714Y-15518476D02*
X5299762Y-15518476D01*
X5299762Y-15518476D02*
X5318810Y-15528000D01*
X5318810Y-15528000D02*
X5328333Y-15537524D01*
X5328333Y-15537524D02*
X5337857Y-15556571D01*
X5337857Y-15556571D02*
X5347381Y-15594667D01*
X5347381Y-15594667D02*
X5347381Y-15642286D01*
X5347381Y-15642286D02*
X5337857Y-15680381D01*
X5337857Y-15680381D02*
X5328333Y-15699428D01*
X5328333Y-15699428D02*
X5318810Y-15708952D01*
X5318810Y-15708952D02*
X5299762Y-15718476D01*
X5299762Y-15718476D02*
X5280714Y-15718476D01*
X5280714Y-15718476D02*
X5261667Y-15708952D01*
X5261667Y-15708952D02*
X5252143Y-15699428D01*
X5252143Y-15699428D02*
X5242619Y-15680381D01*
X5242619Y-15680381D02*
X5233095Y-15642286D01*
X5233095Y-15642286D02*
X5233095Y-15594667D01*
X5233095Y-15594667D02*
X5242619Y-15556571D01*
X5242619Y-15556571D02*
X5252143Y-15537524D01*
X5252143Y-15537524D02*
X5261667Y-15528000D01*
X5261667Y-15528000D02*
X5280714Y-15518476D01*
X5433095Y-15699428D02*
X5442619Y-15708952D01*
X5442619Y-15708952D02*
X5433095Y-15718476D01*
X5433095Y-15718476D02*
X5423571Y-15708952D01*
X5423571Y-15708952D02*
X5433095Y-15699428D01*
X5433095Y-15699428D02*
X5433095Y-15718476D01*
X5556905Y-15604190D02*
X5537857Y-15594667D01*
X5537857Y-15594667D02*
X5528333Y-15585143D01*
X5528333Y-15585143D02*
X5518810Y-15566095D01*
X5518810Y-15566095D02*
X5518810Y-15556571D01*
X5518810Y-15556571D02*
X5528333Y-15537524D01*
X5528333Y-15537524D02*
X5537857Y-15528000D01*
X5537857Y-15528000D02*
X5556905Y-15518476D01*
X5556905Y-15518476D02*
X5595000Y-15518476D01*
X5595000Y-15518476D02*
X5614048Y-15528000D01*
X5614048Y-15528000D02*
X5623571Y-15537524D01*
X5623571Y-15537524D02*
X5633095Y-15556571D01*
X5633095Y-15556571D02*
X5633095Y-15566095D01*
X5633095Y-15566095D02*
X5623571Y-15585143D01*
X5623571Y-15585143D02*
X5614048Y-15594667D01*
X5614048Y-15594667D02*
X5595000Y-15604190D01*
X5595000Y-15604190D02*
X5556905Y-15604190D01*
X5556905Y-15604190D02*
X5537857Y-15613714D01*
X5537857Y-15613714D02*
X5528333Y-15623238D01*
X5528333Y-15623238D02*
X5518810Y-15642286D01*
X5518810Y-15642286D02*
X5518810Y-15680381D01*
X5518810Y-15680381D02*
X5528333Y-15699428D01*
X5528333Y-15699428D02*
X5537857Y-15708952D01*
X5537857Y-15708952D02*
X5556905Y-15718476D01*
X5556905Y-15718476D02*
X5595000Y-15718476D01*
X5595000Y-15718476D02*
X5614048Y-15708952D01*
X5614048Y-15708952D02*
X5623571Y-15699428D01*
X5623571Y-15699428D02*
X5633095Y-15680381D01*
X5633095Y-15680381D02*
X5633095Y-15642286D01*
X5633095Y-15642286D02*
X5623571Y-15623238D01*
X5623571Y-15623238D02*
X5614048Y-15613714D01*
X5614048Y-15613714D02*
X5595000Y-15604190D01*
X5756905Y-15518476D02*
X5775952Y-15518476D01*
X5775952Y-15518476D02*
X5795000Y-15528000D01*
X5795000Y-15528000D02*
X5804524Y-15537524D01*
X5804524Y-15537524D02*
X5814048Y-15556571D01*
X5814048Y-15556571D02*
X5823571Y-15594667D01*
X5823571Y-15594667D02*
X5823571Y-15642286D01*
X5823571Y-15642286D02*
X5814048Y-15680381D01*
X5814048Y-15680381D02*
X5804524Y-15699428D01*
X5804524Y-15699428D02*
X5795000Y-15708952D01*
X5795000Y-15708952D02*
X5775952Y-15718476D01*
X5775952Y-15718476D02*
X5756905Y-15718476D01*
X5756905Y-15718476D02*
X5737857Y-15708952D01*
X5737857Y-15708952D02*
X5728333Y-15699428D01*
X5728333Y-15699428D02*
X5718809Y-15680381D01*
X5718809Y-15680381D02*
X5709286Y-15642286D01*
X5709286Y-15642286D02*
X5709286Y-15594667D01*
X5709286Y-15594667D02*
X5718809Y-15556571D01*
X5718809Y-15556571D02*
X5728333Y-15537524D01*
X5728333Y-15537524D02*
X5737857Y-15528000D01*
X5737857Y-15528000D02*
X5756905Y-15518476D01*
X5947381Y-15518476D02*
X5966429Y-15518476D01*
X5966429Y-15518476D02*
X5985476Y-15528000D01*
X5985476Y-15528000D02*
X5995000Y-15537524D01*
X5995000Y-15537524D02*
X6004524Y-15556571D01*
X6004524Y-15556571D02*
X6014048Y-15594667D01*
X6014048Y-15594667D02*
X6014048Y-15642286D01*
X6014048Y-15642286D02*
X6004524Y-15680381D01*
X6004524Y-15680381D02*
X5995000Y-15699428D01*
X5995000Y-15699428D02*
X5985476Y-15708952D01*
X5985476Y-15708952D02*
X5966429Y-15718476D01*
X5966429Y-15718476D02*
X5947381Y-15718476D01*
X5947381Y-15718476D02*
X5928333Y-15708952D01*
X5928333Y-15708952D02*
X5918809Y-15699428D01*
X5918809Y-15699428D02*
X5909286Y-15680381D01*
X5909286Y-15680381D02*
X5899762Y-15642286D01*
X5899762Y-15642286D02*
X5899762Y-15594667D01*
X5899762Y-15594667D02*
X5909286Y-15556571D01*
X5909286Y-15556571D02*
X5918809Y-15537524D01*
X5918809Y-15537524D02*
X5928333Y-15528000D01*
X5928333Y-15528000D02*
X5947381Y-15518476D01*
X6099762Y-15718476D02*
X6099762Y-15585143D01*
X6099762Y-15604190D02*
X6109286Y-15594667D01*
X6109286Y-15594667D02*
X6128333Y-15585143D01*
X6128333Y-15585143D02*
X6156905Y-15585143D01*
X6156905Y-15585143D02*
X6175952Y-15594667D01*
X6175952Y-15594667D02*
X6185476Y-15613714D01*
X6185476Y-15613714D02*
X6185476Y-15718476D01*
X6185476Y-15613714D02*
X6195000Y-15594667D01*
X6195000Y-15594667D02*
X6214048Y-15585143D01*
X6214048Y-15585143D02*
X6242619Y-15585143D01*
X6242619Y-15585143D02*
X6261667Y-15594667D01*
X6261667Y-15594667D02*
X6271190Y-15613714D01*
X6271190Y-15613714D02*
X6271190Y-15718476D01*
X6366429Y-15718476D02*
X6366429Y-15585143D01*
X6366429Y-15604190D02*
X6375952Y-15594667D01*
X6375952Y-15594667D02*
X6395000Y-15585143D01*
X6395000Y-15585143D02*
X6423571Y-15585143D01*
X6423571Y-15585143D02*
X6442619Y-15594667D01*
X6442619Y-15594667D02*
X6452143Y-15613714D01*
X6452143Y-15613714D02*
X6452143Y-15718476D01*
X6452143Y-15613714D02*
X6461667Y-15594667D01*
X6461667Y-15594667D02*
X6480714Y-15585143D01*
X6480714Y-15585143D02*
X6509286Y-15585143D01*
X6509286Y-15585143D02*
X6528333Y-15594667D01*
X6528333Y-15594667D02*
X6537857Y-15613714D01*
X6537857Y-15613714D02*
X6537857Y-15718476D01*
X6895952Y-15508952D02*
X6724524Y-15766095D01*
X7120714Y-15518476D02*
X7139762Y-15518476D01*
X7139762Y-15518476D02*
X7158810Y-15528000D01*
X7158810Y-15528000D02*
X7168333Y-15537524D01*
X7168333Y-15537524D02*
X7177857Y-15556571D01*
X7177857Y-15556571D02*
X7187381Y-15594667D01*
X7187381Y-15594667D02*
X7187381Y-15642286D01*
X7187381Y-15642286D02*
X7177857Y-15680381D01*
X7177857Y-15680381D02*
X7168333Y-15699428D01*
X7168333Y-15699428D02*
X7158810Y-15708952D01*
X7158810Y-15708952D02*
X7139762Y-15718476D01*
X7139762Y-15718476D02*
X7120714Y-15718476D01*
X7120714Y-15718476D02*
X7101667Y-15708952D01*
X7101667Y-15708952D02*
X7092143Y-15699428D01*
X7092143Y-15699428D02*
X7082619Y-15680381D01*
X7082619Y-15680381D02*
X7073095Y-15642286D01*
X7073095Y-15642286D02*
X7073095Y-15594667D01*
X7073095Y-15594667D02*
X7082619Y-15556571D01*
X7082619Y-15556571D02*
X7092143Y-15537524D01*
X7092143Y-15537524D02*
X7101667Y-15528000D01*
X7101667Y-15528000D02*
X7120714Y-15518476D01*
X7273095Y-15699428D02*
X7282619Y-15708952D01*
X7282619Y-15708952D02*
X7273095Y-15718476D01*
X7273095Y-15718476D02*
X7263571Y-15708952D01*
X7263571Y-15708952D02*
X7273095Y-15699428D01*
X7273095Y-15699428D02*
X7273095Y-15718476D01*
X7406429Y-15518476D02*
X7425476Y-15518476D01*
X7425476Y-15518476D02*
X7444524Y-15528000D01*
X7444524Y-15528000D02*
X7454048Y-15537524D01*
X7454048Y-15537524D02*
X7463571Y-15556571D01*
X7463571Y-15556571D02*
X7473095Y-15594667D01*
X7473095Y-15594667D02*
X7473095Y-15642286D01*
X7473095Y-15642286D02*
X7463571Y-15680381D01*
X7463571Y-15680381D02*
X7454048Y-15699428D01*
X7454048Y-15699428D02*
X7444524Y-15708952D01*
X7444524Y-15708952D02*
X7425476Y-15718476D01*
X7425476Y-15718476D02*
X7406429Y-15718476D01*
X7406429Y-15718476D02*
X7387381Y-15708952D01*
X7387381Y-15708952D02*
X7377857Y-15699428D01*
X7377857Y-15699428D02*
X7368333Y-15680381D01*
X7368333Y-15680381D02*
X7358810Y-15642286D01*
X7358810Y-15642286D02*
X7358810Y-15594667D01*
X7358810Y-15594667D02*
X7368333Y-15556571D01*
X7368333Y-15556571D02*
X7377857Y-15537524D01*
X7377857Y-15537524D02*
X7387381Y-15528000D01*
X7387381Y-15528000D02*
X7406429Y-15518476D01*
X7539762Y-15518476D02*
X7663571Y-15518476D01*
X7663571Y-15518476D02*
X7596905Y-15594667D01*
X7596905Y-15594667D02*
X7625476Y-15594667D01*
X7625476Y-15594667D02*
X7644524Y-15604190D01*
X7644524Y-15604190D02*
X7654048Y-15613714D01*
X7654048Y-15613714D02*
X7663571Y-15632762D01*
X7663571Y-15632762D02*
X7663571Y-15680381D01*
X7663571Y-15680381D02*
X7654048Y-15699428D01*
X7654048Y-15699428D02*
X7644524Y-15708952D01*
X7644524Y-15708952D02*
X7625476Y-15718476D01*
X7625476Y-15718476D02*
X7568333Y-15718476D01*
X7568333Y-15718476D02*
X7549286Y-15708952D01*
X7549286Y-15708952D02*
X7539762Y-15699428D01*
X7854048Y-15718476D02*
X7739762Y-15718476D01*
X7796905Y-15718476D02*
X7796905Y-15518476D01*
X7796905Y-15518476D02*
X7777857Y-15547048D01*
X7777857Y-15547048D02*
X7758810Y-15566095D01*
X7758810Y-15566095D02*
X7739762Y-15575619D01*
X8035000Y-15518476D02*
X7939762Y-15518476D01*
X7939762Y-15518476D02*
X7930238Y-15613714D01*
X7930238Y-15613714D02*
X7939762Y-15604190D01*
X7939762Y-15604190D02*
X7958810Y-15594667D01*
X7958810Y-15594667D02*
X8006429Y-15594667D01*
X8006429Y-15594667D02*
X8025476Y-15604190D01*
X8025476Y-15604190D02*
X8035000Y-15613714D01*
X8035000Y-15613714D02*
X8044524Y-15632762D01*
X8044524Y-15632762D02*
X8044524Y-15680381D01*
X8044524Y-15680381D02*
X8035000Y-15699428D01*
X8035000Y-15699428D02*
X8025476Y-15708952D01*
X8025476Y-15708952D02*
X8006429Y-15718476D01*
X8006429Y-15718476D02*
X7958810Y-15718476D01*
X7958810Y-15718476D02*
X7939762Y-15708952D01*
X7939762Y-15708952D02*
X7930238Y-15699428D01*
X8120714Y-15518476D02*
X8120714Y-15556571D01*
X8196905Y-15518476D02*
X8196905Y-15556571D01*
X8459762Y-15794667D02*
X8450238Y-15785143D01*
X8450238Y-15785143D02*
X8431191Y-15756571D01*
X8431191Y-15756571D02*
X8421667Y-15737524D01*
X8421667Y-15737524D02*
X8412143Y-15708952D01*
X8412143Y-15708952D02*
X8402619Y-15661333D01*
X8402619Y-15661333D02*
X8402619Y-15623238D01*
X8402619Y-15623238D02*
X8412143Y-15575619D01*
X8412143Y-15575619D02*
X8421667Y-15547048D01*
X8421667Y-15547048D02*
X8431191Y-15528000D01*
X8431191Y-15528000D02*
X8450238Y-15499428D01*
X8450238Y-15499428D02*
X8459762Y-15489905D01*
X8526429Y-15537524D02*
X8535953Y-15528000D01*
X8535953Y-15528000D02*
X8555000Y-15518476D01*
X8555000Y-15518476D02*
X8602619Y-15518476D01*
X8602619Y-15518476D02*
X8621667Y-15528000D01*
X8621667Y-15528000D02*
X8631191Y-15537524D01*
X8631191Y-15537524D02*
X8640714Y-15556571D01*
X8640714Y-15556571D02*
X8640714Y-15575619D01*
X8640714Y-15575619D02*
X8631191Y-15604190D01*
X8631191Y-15604190D02*
X8516905Y-15718476D01*
X8516905Y-15718476D02*
X8640714Y-15718476D01*
X8812143Y-15585143D02*
X8812143Y-15718476D01*
X8764524Y-15508952D02*
X8716905Y-15651809D01*
X8716905Y-15651809D02*
X8840714Y-15651809D01*
X9036905Y-15718476D02*
X9036905Y-15518476D01*
X9122619Y-15718476D02*
X9122619Y-15613714D01*
X9122619Y-15613714D02*
X9113095Y-15594667D01*
X9113095Y-15594667D02*
X9094048Y-15585143D01*
X9094048Y-15585143D02*
X9065476Y-15585143D01*
X9065476Y-15585143D02*
X9046429Y-15594667D01*
X9046429Y-15594667D02*
X9036905Y-15604190D01*
X9246429Y-15718476D02*
X9227381Y-15708952D01*
X9227381Y-15708952D02*
X9217857Y-15699428D01*
X9217857Y-15699428D02*
X9208334Y-15680381D01*
X9208334Y-15680381D02*
X9208334Y-15623238D01*
X9208334Y-15623238D02*
X9217857Y-15604190D01*
X9217857Y-15604190D02*
X9227381Y-15594667D01*
X9227381Y-15594667D02*
X9246429Y-15585143D01*
X9246429Y-15585143D02*
X9275000Y-15585143D01*
X9275000Y-15585143D02*
X9294048Y-15594667D01*
X9294048Y-15594667D02*
X9303572Y-15604190D01*
X9303572Y-15604190D02*
X9313095Y-15623238D01*
X9313095Y-15623238D02*
X9313095Y-15680381D01*
X9313095Y-15680381D02*
X9303572Y-15699428D01*
X9303572Y-15699428D02*
X9294048Y-15708952D01*
X9294048Y-15708952D02*
X9275000Y-15718476D01*
X9275000Y-15718476D02*
X9246429Y-15718476D01*
X9427381Y-15718476D02*
X9408334Y-15708952D01*
X9408334Y-15708952D02*
X9398810Y-15689905D01*
X9398810Y-15689905D02*
X9398810Y-15518476D01*
X9579762Y-15708952D02*
X9560715Y-15718476D01*
X9560715Y-15718476D02*
X9522619Y-15718476D01*
X9522619Y-15718476D02*
X9503572Y-15708952D01*
X9503572Y-15708952D02*
X9494048Y-15689905D01*
X9494048Y-15689905D02*
X9494048Y-15613714D01*
X9494048Y-15613714D02*
X9503572Y-15594667D01*
X9503572Y-15594667D02*
X9522619Y-15585143D01*
X9522619Y-15585143D02*
X9560715Y-15585143D01*
X9560715Y-15585143D02*
X9579762Y-15594667D01*
X9579762Y-15594667D02*
X9589286Y-15613714D01*
X9589286Y-15613714D02*
X9589286Y-15632762D01*
X9589286Y-15632762D02*
X9494048Y-15651809D01*
X9665476Y-15708952D02*
X9684524Y-15718476D01*
X9684524Y-15718476D02*
X9722619Y-15718476D01*
X9722619Y-15718476D02*
X9741667Y-15708952D01*
X9741667Y-15708952D02*
X9751191Y-15689905D01*
X9751191Y-15689905D02*
X9751191Y-15680381D01*
X9751191Y-15680381D02*
X9741667Y-15661333D01*
X9741667Y-15661333D02*
X9722619Y-15651809D01*
X9722619Y-15651809D02*
X9694048Y-15651809D01*
X9694048Y-15651809D02*
X9675000Y-15642286D01*
X9675000Y-15642286D02*
X9665476Y-15623238D01*
X9665476Y-15623238D02*
X9665476Y-15613714D01*
X9665476Y-15613714D02*
X9675000Y-15594667D01*
X9675000Y-15594667D02*
X9694048Y-15585143D01*
X9694048Y-15585143D02*
X9722619Y-15585143D01*
X9722619Y-15585143D02*
X9741667Y-15594667D01*
X9817857Y-15794667D02*
X9827381Y-15785143D01*
X9827381Y-15785143D02*
X9846429Y-15756571D01*
X9846429Y-15756571D02*
X9855953Y-15737524D01*
X9855953Y-15737524D02*
X9865476Y-15708952D01*
X9865476Y-15708952D02*
X9875000Y-15661333D01*
X9875000Y-15661333D02*
X9875000Y-15623238D01*
X9875000Y-15623238D02*
X9865476Y-15575619D01*
X9865476Y-15575619D02*
X9855953Y-15547048D01*
X9855953Y-15547048D02*
X9846429Y-15528000D01*
X9846429Y-15528000D02*
X9827381Y-15499428D01*
X9827381Y-15499428D02*
X9817857Y-15489905D01*
D10*
X4995000Y-15909000D02*
G75*
G03*
X4995000Y-15909000I-50000J0D01*
G01*
D11*
X5347381Y-15982476D02*
X5233095Y-15982476D01*
X5290238Y-15982476D02*
X5290238Y-15782476D01*
X5290238Y-15782476D02*
X5271190Y-15811048D01*
X5271190Y-15811048D02*
X5252143Y-15830095D01*
X5252143Y-15830095D02*
X5233095Y-15839619D01*
X5433095Y-15963428D02*
X5442619Y-15972952D01*
X5442619Y-15972952D02*
X5433095Y-15982476D01*
X5433095Y-15982476D02*
X5423571Y-15972952D01*
X5423571Y-15972952D02*
X5433095Y-15963428D01*
X5433095Y-15963428D02*
X5433095Y-15982476D01*
X5566429Y-15782476D02*
X5585476Y-15782476D01*
X5585476Y-15782476D02*
X5604524Y-15792000D01*
X5604524Y-15792000D02*
X5614048Y-15801524D01*
X5614048Y-15801524D02*
X5623571Y-15820571D01*
X5623571Y-15820571D02*
X5633095Y-15858667D01*
X5633095Y-15858667D02*
X5633095Y-15906286D01*
X5633095Y-15906286D02*
X5623571Y-15944381D01*
X5623571Y-15944381D02*
X5614048Y-15963428D01*
X5614048Y-15963428D02*
X5604524Y-15972952D01*
X5604524Y-15972952D02*
X5585476Y-15982476D01*
X5585476Y-15982476D02*
X5566429Y-15982476D01*
X5566429Y-15982476D02*
X5547381Y-15972952D01*
X5547381Y-15972952D02*
X5537857Y-15963428D01*
X5537857Y-15963428D02*
X5528333Y-15944381D01*
X5528333Y-15944381D02*
X5518810Y-15906286D01*
X5518810Y-15906286D02*
X5518810Y-15858667D01*
X5518810Y-15858667D02*
X5528333Y-15820571D01*
X5528333Y-15820571D02*
X5537857Y-15801524D01*
X5537857Y-15801524D02*
X5547381Y-15792000D01*
X5547381Y-15792000D02*
X5566429Y-15782476D01*
X5756905Y-15782476D02*
X5775952Y-15782476D01*
X5775952Y-15782476D02*
X5795000Y-15792000D01*
X5795000Y-15792000D02*
X5804524Y-15801524D01*
X5804524Y-15801524D02*
X5814048Y-15820571D01*
X5814048Y-15820571D02*
X5823571Y-15858667D01*
X5823571Y-15858667D02*
X5823571Y-15906286D01*
X5823571Y-15906286D02*
X5814048Y-15944381D01*
X5814048Y-15944381D02*
X5804524Y-15963428D01*
X5804524Y-15963428D02*
X5795000Y-15972952D01*
X5795000Y-15972952D02*
X5775952Y-15982476D01*
X5775952Y-15982476D02*
X5756905Y-15982476D01*
X5756905Y-15982476D02*
X5737857Y-15972952D01*
X5737857Y-15972952D02*
X5728333Y-15963428D01*
X5728333Y-15963428D02*
X5718809Y-15944381D01*
X5718809Y-15944381D02*
X5709286Y-15906286D01*
X5709286Y-15906286D02*
X5709286Y-15858667D01*
X5709286Y-15858667D02*
X5718809Y-15820571D01*
X5718809Y-15820571D02*
X5728333Y-15801524D01*
X5728333Y-15801524D02*
X5737857Y-15792000D01*
X5737857Y-15792000D02*
X5756905Y-15782476D01*
X5947381Y-15782476D02*
X5966429Y-15782476D01*
X5966429Y-15782476D02*
X5985476Y-15792000D01*
X5985476Y-15792000D02*
X5995000Y-15801524D01*
X5995000Y-15801524D02*
X6004524Y-15820571D01*
X6004524Y-15820571D02*
X6014048Y-15858667D01*
X6014048Y-15858667D02*
X6014048Y-15906286D01*
X6014048Y-15906286D02*
X6004524Y-15944381D01*
X6004524Y-15944381D02*
X5995000Y-15963428D01*
X5995000Y-15963428D02*
X5985476Y-15972952D01*
X5985476Y-15972952D02*
X5966429Y-15982476D01*
X5966429Y-15982476D02*
X5947381Y-15982476D01*
X5947381Y-15982476D02*
X5928333Y-15972952D01*
X5928333Y-15972952D02*
X5918809Y-15963428D01*
X5918809Y-15963428D02*
X5909286Y-15944381D01*
X5909286Y-15944381D02*
X5899762Y-15906286D01*
X5899762Y-15906286D02*
X5899762Y-15858667D01*
X5899762Y-15858667D02*
X5909286Y-15820571D01*
X5909286Y-15820571D02*
X5918809Y-15801524D01*
X5918809Y-15801524D02*
X5928333Y-15792000D01*
X5928333Y-15792000D02*
X5947381Y-15782476D01*
X6099762Y-15982476D02*
X6099762Y-15849143D01*
X6099762Y-15868190D02*
X6109286Y-15858667D01*
X6109286Y-15858667D02*
X6128333Y-15849143D01*
X6128333Y-15849143D02*
X6156905Y-15849143D01*
X6156905Y-15849143D02*
X6175952Y-15858667D01*
X6175952Y-15858667D02*
X6185476Y-15877714D01*
X6185476Y-15877714D02*
X6185476Y-15982476D01*
X6185476Y-15877714D02*
X6195000Y-15858667D01*
X6195000Y-15858667D02*
X6214048Y-15849143D01*
X6214048Y-15849143D02*
X6242619Y-15849143D01*
X6242619Y-15849143D02*
X6261667Y-15858667D01*
X6261667Y-15858667D02*
X6271190Y-15877714D01*
X6271190Y-15877714D02*
X6271190Y-15982476D01*
X6366429Y-15982476D02*
X6366429Y-15849143D01*
X6366429Y-15868190D02*
X6375952Y-15858667D01*
X6375952Y-15858667D02*
X6395000Y-15849143D01*
X6395000Y-15849143D02*
X6423571Y-15849143D01*
X6423571Y-15849143D02*
X6442619Y-15858667D01*
X6442619Y-15858667D02*
X6452143Y-15877714D01*
X6452143Y-15877714D02*
X6452143Y-15982476D01*
X6452143Y-15877714D02*
X6461667Y-15858667D01*
X6461667Y-15858667D02*
X6480714Y-15849143D01*
X6480714Y-15849143D02*
X6509286Y-15849143D01*
X6509286Y-15849143D02*
X6528333Y-15858667D01*
X6528333Y-15858667D02*
X6537857Y-15877714D01*
X6537857Y-15877714D02*
X6537857Y-15982476D01*
X6895952Y-15772952D02*
X6724524Y-16030095D01*
X7120714Y-15782476D02*
X7139762Y-15782476D01*
X7139762Y-15782476D02*
X7158810Y-15792000D01*
X7158810Y-15792000D02*
X7168333Y-15801524D01*
X7168333Y-15801524D02*
X7177857Y-15820571D01*
X7177857Y-15820571D02*
X7187381Y-15858667D01*
X7187381Y-15858667D02*
X7187381Y-15906286D01*
X7187381Y-15906286D02*
X7177857Y-15944381D01*
X7177857Y-15944381D02*
X7168333Y-15963428D01*
X7168333Y-15963428D02*
X7158810Y-15972952D01*
X7158810Y-15972952D02*
X7139762Y-15982476D01*
X7139762Y-15982476D02*
X7120714Y-15982476D01*
X7120714Y-15982476D02*
X7101667Y-15972952D01*
X7101667Y-15972952D02*
X7092143Y-15963428D01*
X7092143Y-15963428D02*
X7082619Y-15944381D01*
X7082619Y-15944381D02*
X7073095Y-15906286D01*
X7073095Y-15906286D02*
X7073095Y-15858667D01*
X7073095Y-15858667D02*
X7082619Y-15820571D01*
X7082619Y-15820571D02*
X7092143Y-15801524D01*
X7092143Y-15801524D02*
X7101667Y-15792000D01*
X7101667Y-15792000D02*
X7120714Y-15782476D01*
X7273095Y-15963428D02*
X7282619Y-15972952D01*
X7282619Y-15972952D02*
X7273095Y-15982476D01*
X7273095Y-15982476D02*
X7263571Y-15972952D01*
X7263571Y-15972952D02*
X7273095Y-15963428D01*
X7273095Y-15963428D02*
X7273095Y-15982476D01*
X7406429Y-15782476D02*
X7425476Y-15782476D01*
X7425476Y-15782476D02*
X7444524Y-15792000D01*
X7444524Y-15792000D02*
X7454048Y-15801524D01*
X7454048Y-15801524D02*
X7463571Y-15820571D01*
X7463571Y-15820571D02*
X7473095Y-15858667D01*
X7473095Y-15858667D02*
X7473095Y-15906286D01*
X7473095Y-15906286D02*
X7463571Y-15944381D01*
X7463571Y-15944381D02*
X7454048Y-15963428D01*
X7454048Y-15963428D02*
X7444524Y-15972952D01*
X7444524Y-15972952D02*
X7425476Y-15982476D01*
X7425476Y-15982476D02*
X7406429Y-15982476D01*
X7406429Y-15982476D02*
X7387381Y-15972952D01*
X7387381Y-15972952D02*
X7377857Y-15963428D01*
X7377857Y-15963428D02*
X7368333Y-15944381D01*
X7368333Y-15944381D02*
X7358810Y-15906286D01*
X7358810Y-15906286D02*
X7358810Y-15858667D01*
X7358810Y-15858667D02*
X7368333Y-15820571D01*
X7368333Y-15820571D02*
X7377857Y-15801524D01*
X7377857Y-15801524D02*
X7387381Y-15792000D01*
X7387381Y-15792000D02*
X7406429Y-15782476D01*
X7539762Y-15782476D02*
X7663571Y-15782476D01*
X7663571Y-15782476D02*
X7596905Y-15858667D01*
X7596905Y-15858667D02*
X7625476Y-15858667D01*
X7625476Y-15858667D02*
X7644524Y-15868190D01*
X7644524Y-15868190D02*
X7654048Y-15877714D01*
X7654048Y-15877714D02*
X7663571Y-15896762D01*
X7663571Y-15896762D02*
X7663571Y-15944381D01*
X7663571Y-15944381D02*
X7654048Y-15963428D01*
X7654048Y-15963428D02*
X7644524Y-15972952D01*
X7644524Y-15972952D02*
X7625476Y-15982476D01*
X7625476Y-15982476D02*
X7568333Y-15982476D01*
X7568333Y-15982476D02*
X7549286Y-15972952D01*
X7549286Y-15972952D02*
X7539762Y-15963428D01*
X7758810Y-15982476D02*
X7796905Y-15982476D01*
X7796905Y-15982476D02*
X7815952Y-15972952D01*
X7815952Y-15972952D02*
X7825476Y-15963428D01*
X7825476Y-15963428D02*
X7844524Y-15934857D01*
X7844524Y-15934857D02*
X7854048Y-15896762D01*
X7854048Y-15896762D02*
X7854048Y-15820571D01*
X7854048Y-15820571D02*
X7844524Y-15801524D01*
X7844524Y-15801524D02*
X7835000Y-15792000D01*
X7835000Y-15792000D02*
X7815952Y-15782476D01*
X7815952Y-15782476D02*
X7777857Y-15782476D01*
X7777857Y-15782476D02*
X7758810Y-15792000D01*
X7758810Y-15792000D02*
X7749286Y-15801524D01*
X7749286Y-15801524D02*
X7739762Y-15820571D01*
X7739762Y-15820571D02*
X7739762Y-15868190D01*
X7739762Y-15868190D02*
X7749286Y-15887238D01*
X7749286Y-15887238D02*
X7758810Y-15896762D01*
X7758810Y-15896762D02*
X7777857Y-15906286D01*
X7777857Y-15906286D02*
X7815952Y-15906286D01*
X7815952Y-15906286D02*
X7835000Y-15896762D01*
X7835000Y-15896762D02*
X7844524Y-15887238D01*
X7844524Y-15887238D02*
X7854048Y-15868190D01*
X8025476Y-15849143D02*
X8025476Y-15982476D01*
X7977857Y-15772952D02*
X7930238Y-15915809D01*
X7930238Y-15915809D02*
X8054048Y-15915809D01*
X8120714Y-15782476D02*
X8120714Y-15820571D01*
X8196905Y-15782476D02*
X8196905Y-15820571D01*
X8459762Y-16058667D02*
X8450238Y-16049143D01*
X8450238Y-16049143D02*
X8431191Y-16020571D01*
X8431191Y-16020571D02*
X8421667Y-16001524D01*
X8421667Y-16001524D02*
X8412143Y-15972952D01*
X8412143Y-15972952D02*
X8402619Y-15925333D01*
X8402619Y-15925333D02*
X8402619Y-15887238D01*
X8402619Y-15887238D02*
X8412143Y-15839619D01*
X8412143Y-15839619D02*
X8421667Y-15811048D01*
X8421667Y-15811048D02*
X8431191Y-15792000D01*
X8431191Y-15792000D02*
X8450238Y-15763428D01*
X8450238Y-15763428D02*
X8459762Y-15753905D01*
X8640714Y-15982476D02*
X8526429Y-15982476D01*
X8583572Y-15982476D02*
X8583572Y-15782476D01*
X8583572Y-15782476D02*
X8564524Y-15811048D01*
X8564524Y-15811048D02*
X8545476Y-15830095D01*
X8545476Y-15830095D02*
X8526429Y-15839619D01*
X8831191Y-15982476D02*
X8716905Y-15982476D01*
X8774048Y-15982476D02*
X8774048Y-15782476D01*
X8774048Y-15782476D02*
X8755000Y-15811048D01*
X8755000Y-15811048D02*
X8735953Y-15830095D01*
X8735953Y-15830095D02*
X8716905Y-15839619D01*
X9036905Y-15982476D02*
X9036905Y-15782476D01*
X9122619Y-15982476D02*
X9122619Y-15877714D01*
X9122619Y-15877714D02*
X9113095Y-15858667D01*
X9113095Y-15858667D02*
X9094048Y-15849143D01*
X9094048Y-15849143D02*
X9065476Y-15849143D01*
X9065476Y-15849143D02*
X9046429Y-15858667D01*
X9046429Y-15858667D02*
X9036905Y-15868190D01*
X9246429Y-15982476D02*
X9227381Y-15972952D01*
X9227381Y-15972952D02*
X9217857Y-15963428D01*
X9217857Y-15963428D02*
X9208334Y-15944381D01*
X9208334Y-15944381D02*
X9208334Y-15887238D01*
X9208334Y-15887238D02*
X9217857Y-15868190D01*
X9217857Y-15868190D02*
X9227381Y-15858667D01*
X9227381Y-15858667D02*
X9246429Y-15849143D01*
X9246429Y-15849143D02*
X9275000Y-15849143D01*
X9275000Y-15849143D02*
X9294048Y-15858667D01*
X9294048Y-15858667D02*
X9303572Y-15868190D01*
X9303572Y-15868190D02*
X9313095Y-15887238D01*
X9313095Y-15887238D02*
X9313095Y-15944381D01*
X9313095Y-15944381D02*
X9303572Y-15963428D01*
X9303572Y-15963428D02*
X9294048Y-15972952D01*
X9294048Y-15972952D02*
X9275000Y-15982476D01*
X9275000Y-15982476D02*
X9246429Y-15982476D01*
X9427381Y-15982476D02*
X9408334Y-15972952D01*
X9408334Y-15972952D02*
X9398810Y-15953905D01*
X9398810Y-15953905D02*
X9398810Y-15782476D01*
X9579762Y-15972952D02*
X9560715Y-15982476D01*
X9560715Y-15982476D02*
X9522619Y-15982476D01*
X9522619Y-15982476D02*
X9503572Y-15972952D01*
X9503572Y-15972952D02*
X9494048Y-15953905D01*
X9494048Y-15953905D02*
X9494048Y-15877714D01*
X9494048Y-15877714D02*
X9503572Y-15858667D01*
X9503572Y-15858667D02*
X9522619Y-15849143D01*
X9522619Y-15849143D02*
X9560715Y-15849143D01*
X9560715Y-15849143D02*
X9579762Y-15858667D01*
X9579762Y-15858667D02*
X9589286Y-15877714D01*
X9589286Y-15877714D02*
X9589286Y-15896762D01*
X9589286Y-15896762D02*
X9494048Y-15915809D01*
X9665476Y-15972952D02*
X9684524Y-15982476D01*
X9684524Y-15982476D02*
X9722619Y-15982476D01*
X9722619Y-15982476D02*
X9741667Y-15972952D01*
X9741667Y-15972952D02*
X9751191Y-15953905D01*
X9751191Y-15953905D02*
X9751191Y-15944381D01*
X9751191Y-15944381D02*
X9741667Y-15925333D01*
X9741667Y-15925333D02*
X9722619Y-15915809D01*
X9722619Y-15915809D02*
X9694048Y-15915809D01*
X9694048Y-15915809D02*
X9675000Y-15906286D01*
X9675000Y-15906286D02*
X9665476Y-15887238D01*
X9665476Y-15887238D02*
X9665476Y-15877714D01*
X9665476Y-15877714D02*
X9675000Y-15858667D01*
X9675000Y-15858667D02*
X9694048Y-15849143D01*
X9694048Y-15849143D02*
X9722619Y-15849143D01*
X9722619Y-15849143D02*
X9741667Y-15858667D01*
X9817857Y-16058667D02*
X9827381Y-16049143D01*
X9827381Y-16049143D02*
X9846429Y-16020571D01*
X9846429Y-16020571D02*
X9855953Y-16001524D01*
X9855953Y-16001524D02*
X9865476Y-15972952D01*
X9865476Y-15972952D02*
X9875000Y-15925333D01*
X9875000Y-15925333D02*
X9875000Y-15887238D01*
X9875000Y-15887238D02*
X9865476Y-15839619D01*
X9865476Y-15839619D02*
X9855953Y-15811048D01*
X9855953Y-15811048D02*
X9846429Y-15792000D01*
X9846429Y-15792000D02*
X9827381Y-15763428D01*
X9827381Y-15763428D02*
X9817857Y-15753905D01*
M02*
