G04 #@! TF.GenerationSoftware,KiCad,Pcbnew,(7.0.0-0)*
G04 #@! TF.CreationDate,2023-05-28T12:49:39+02:00*
G04 #@! TF.ProjectId,bms-breakout-board,626d732d-6272-4656-916b-6f75742d626f,rev?*
G04 #@! TF.SameCoordinates,Original*
G04 #@! TF.FileFunction,Copper,L2,Bot*
G04 #@! TF.FilePolarity,Positive*
%FSLAX46Y46*%
G04 Gerber Fmt 4.6, Leading zero omitted, Abs format (unit mm)*
G04 Created by KiCad (PCBNEW (7.0.0-0)) date 2023-05-28 12:49:39*
%MOMM*%
%LPD*%
G01*
G04 APERTURE LIST*
G04 #@! TA.AperFunction,ComponentPad*
%ADD10R,1.350000X1.350000*%
G04 #@! TD*
G04 #@! TA.AperFunction,ComponentPad*
%ADD11O,1.350000X1.350000*%
G04 #@! TD*
G04 #@! TA.AperFunction,ComponentPad*
%ADD12O,1.700000X1.700000*%
G04 #@! TD*
G04 #@! TA.AperFunction,ComponentPad*
%ADD13R,1.700000X1.700000*%
G04 #@! TD*
G04 #@! TA.AperFunction,Conductor*
%ADD14C,0.760000*%
G04 #@! TD*
G04 APERTURE END LIST*
D10*
X88899999Y-108869999D03*
D11*
X88899999Y-110869999D03*
X88899999Y-112869999D03*
X88899999Y-114869999D03*
D10*
X88899999Y-121459999D03*
D11*
X88899999Y-123459999D03*
X88899999Y-125459999D03*
X88899999Y-127459999D03*
D12*
X86359999Y-102869999D03*
X83819999Y-102869999D03*
X81279999Y-102869999D03*
X78739999Y-102869999D03*
X76199999Y-102869999D03*
X73659999Y-102869999D03*
X71119999Y-102869999D03*
X68579999Y-102869999D03*
X66039999Y-102869999D03*
X63499999Y-102869999D03*
D13*
X60959999Y-102869999D03*
D10*
X58419999Y-139699999D03*
D11*
X58419999Y-137699999D03*
X58419999Y-135699999D03*
X58419999Y-133699999D03*
D10*
X58419999Y-126999999D03*
D11*
X58419999Y-124999999D03*
X58419999Y-122999999D03*
X58419999Y-120999999D03*
D10*
X58419999Y-114759999D03*
D11*
X58419999Y-112759999D03*
X58419999Y-110759999D03*
X58419999Y-108759999D03*
D10*
X88899999Y-134159999D03*
D11*
X88899999Y-136159999D03*
X88899999Y-138159999D03*
X88899999Y-140159999D03*
D14*
X88900000Y-138160000D02*
X74660000Y-138160000D01*
X74660000Y-138160000D02*
X63500000Y-127000000D01*
X63500000Y-127000000D02*
X63500000Y-102870000D01*
X88900000Y-136160000D02*
X75200000Y-136160000D01*
X75200000Y-136160000D02*
X66040000Y-127000000D01*
X66040000Y-127000000D02*
X66040000Y-102870000D01*
X88900000Y-134160000D02*
X75740000Y-134160000D01*
X75740000Y-134160000D02*
X68580000Y-127000000D01*
X68580000Y-127000000D02*
X68580000Y-102870000D01*
X88900000Y-127460000D02*
X84280000Y-127460000D01*
X84280000Y-127460000D02*
X71120000Y-114300000D01*
X71120000Y-114300000D02*
X71120000Y-102870000D01*
X88900000Y-125460000D02*
X84820000Y-125460000D01*
X84820000Y-125460000D02*
X73660000Y-114300000D01*
X73660000Y-114300000D02*
X73660000Y-102870000D01*
X88900000Y-123460000D02*
X85360000Y-123460000D01*
X85360000Y-123460000D02*
X76200000Y-114300000D01*
X76200000Y-114300000D02*
X76200000Y-102870000D01*
X88900000Y-121460000D02*
X86535000Y-121460000D01*
X86535000Y-121460000D02*
X78740000Y-113665000D01*
X78740000Y-113665000D02*
X78740000Y-102870000D01*
X88900000Y-114870000D02*
X86930000Y-114870000D01*
X86930000Y-114870000D02*
X81280000Y-109220000D01*
X81280000Y-109220000D02*
X81280000Y-102870000D01*
X88900000Y-112870000D02*
X87470000Y-112870000D01*
X87470000Y-112870000D02*
X83820000Y-109220000D01*
X83820000Y-109220000D02*
X83820000Y-102870000D01*
X88900000Y-110870000D02*
X88010000Y-110870000D01*
X88010000Y-110870000D02*
X86360000Y-109220000D01*
X86360000Y-109220000D02*
X86360000Y-102870000D01*
G04 #@! TA.AperFunction,Conductor*
G36*
X96637500Y-98317113D02*
G01*
X96682887Y-98362500D01*
X96699500Y-98424500D01*
X96699500Y-149575500D01*
X96682887Y-149637500D01*
X96637500Y-149682887D01*
X96575500Y-149699500D01*
X50424500Y-149699500D01*
X50362500Y-149682887D01*
X50317113Y-149637500D01*
X50300500Y-149575500D01*
X50300500Y-146500000D01*
X51494390Y-146500000D01*
X51494706Y-146504418D01*
X51514487Y-146781005D01*
X51514488Y-146781014D01*
X51514804Y-146785428D01*
X51515744Y-146789753D01*
X51515746Y-146789761D01*
X51551565Y-146954417D01*
X51575631Y-147065046D01*
X51577175Y-147069185D01*
X51577176Y-147069189D01*
X51613317Y-147166088D01*
X51675633Y-147333161D01*
X51677753Y-147337043D01*
X51677756Y-147337050D01*
X51782922Y-147529646D01*
X51812774Y-147584315D01*
X51984261Y-147813395D01*
X52186605Y-148015739D01*
X52415685Y-148187226D01*
X52666839Y-148324367D01*
X52934954Y-148424369D01*
X53214572Y-148485196D01*
X53500000Y-148505610D01*
X53785428Y-148485196D01*
X54065046Y-148424369D01*
X54333161Y-148324367D01*
X54584315Y-148187226D01*
X54813395Y-148015739D01*
X55015739Y-147813395D01*
X55187226Y-147584315D01*
X55324367Y-147333161D01*
X55424369Y-147065046D01*
X55485196Y-146785428D01*
X55505610Y-146500000D01*
X91494390Y-146500000D01*
X91494706Y-146504418D01*
X91514487Y-146781005D01*
X91514488Y-146781014D01*
X91514804Y-146785428D01*
X91515744Y-146789753D01*
X91515746Y-146789761D01*
X91551565Y-146954417D01*
X91575631Y-147065046D01*
X91577175Y-147069185D01*
X91577176Y-147069189D01*
X91613317Y-147166088D01*
X91675633Y-147333161D01*
X91677753Y-147337043D01*
X91677756Y-147337050D01*
X91782922Y-147529646D01*
X91812774Y-147584315D01*
X91984261Y-147813395D01*
X92186605Y-148015739D01*
X92415685Y-148187226D01*
X92666839Y-148324367D01*
X92934954Y-148424369D01*
X93214572Y-148485196D01*
X93500000Y-148505610D01*
X93785428Y-148485196D01*
X94065046Y-148424369D01*
X94333161Y-148324367D01*
X94584315Y-148187226D01*
X94813395Y-148015739D01*
X95015739Y-147813395D01*
X95187226Y-147584315D01*
X95324367Y-147333161D01*
X95424369Y-147065046D01*
X95485196Y-146785428D01*
X95505610Y-146500000D01*
X95485196Y-146214572D01*
X95424369Y-145934954D01*
X95324367Y-145666839D01*
X95187226Y-145415685D01*
X95015739Y-145186605D01*
X94813395Y-144984261D01*
X94584315Y-144812774D01*
X94580420Y-144810647D01*
X94337050Y-144677756D01*
X94337043Y-144677753D01*
X94333161Y-144675633D01*
X94329017Y-144674087D01*
X94329012Y-144674085D01*
X94069189Y-144577176D01*
X94069185Y-144577175D01*
X94065046Y-144575631D01*
X94035075Y-144569111D01*
X93789761Y-144515746D01*
X93789753Y-144515744D01*
X93785428Y-144514804D01*
X93781014Y-144514488D01*
X93781005Y-144514487D01*
X93504418Y-144494706D01*
X93500000Y-144494390D01*
X93495582Y-144494706D01*
X93218994Y-144514487D01*
X93218983Y-144514488D01*
X93214572Y-144514804D01*
X93210248Y-144515744D01*
X93210238Y-144515746D01*
X92939279Y-144574690D01*
X92939276Y-144574690D01*
X92934954Y-144575631D01*
X92930818Y-144577173D01*
X92930810Y-144577176D01*
X92670987Y-144674085D01*
X92670976Y-144674089D01*
X92666839Y-144675633D01*
X92662961Y-144677750D01*
X92662949Y-144677756D01*
X92419579Y-144810647D01*
X92419571Y-144810651D01*
X92415685Y-144812774D01*
X92412135Y-144815431D01*
X92412131Y-144815434D01*
X92190156Y-144981602D01*
X92190149Y-144981607D01*
X92186605Y-144984261D01*
X92183474Y-144987391D01*
X92183467Y-144987398D01*
X91987398Y-145183467D01*
X91987391Y-145183474D01*
X91984261Y-145186605D01*
X91981607Y-145190149D01*
X91981602Y-145190156D01*
X91960478Y-145218375D01*
X91812774Y-145415685D01*
X91810651Y-145419571D01*
X91810647Y-145419579D01*
X91677756Y-145662949D01*
X91677750Y-145662961D01*
X91675633Y-145666839D01*
X91674089Y-145670976D01*
X91674085Y-145670987D01*
X91577176Y-145930810D01*
X91577173Y-145930818D01*
X91575631Y-145934954D01*
X91574690Y-145939276D01*
X91574690Y-145939279D01*
X91515746Y-146210238D01*
X91515744Y-146210248D01*
X91514804Y-146214572D01*
X91514488Y-146218983D01*
X91514487Y-146218994D01*
X91495272Y-146487654D01*
X91494390Y-146500000D01*
X55505610Y-146500000D01*
X55485196Y-146214572D01*
X55424369Y-145934954D01*
X55324367Y-145666839D01*
X55187226Y-145415685D01*
X55015739Y-145186605D01*
X54813395Y-144984261D01*
X54584315Y-144812774D01*
X54580420Y-144810647D01*
X54337050Y-144677756D01*
X54337043Y-144677753D01*
X54333161Y-144675633D01*
X54329017Y-144674087D01*
X54329012Y-144674085D01*
X54069189Y-144577176D01*
X54069185Y-144577175D01*
X54065046Y-144575631D01*
X54035075Y-144569111D01*
X53789761Y-144515746D01*
X53789753Y-144515744D01*
X53785428Y-144514804D01*
X53781014Y-144514488D01*
X53781005Y-144514487D01*
X53504418Y-144494706D01*
X53500000Y-144494390D01*
X53495582Y-144494706D01*
X53218994Y-144514487D01*
X53218983Y-144514488D01*
X53214572Y-144514804D01*
X53210248Y-144515744D01*
X53210238Y-144515746D01*
X52939279Y-144574690D01*
X52939276Y-144574690D01*
X52934954Y-144575631D01*
X52930818Y-144577173D01*
X52930810Y-144577176D01*
X52670987Y-144674085D01*
X52670976Y-144674089D01*
X52666839Y-144675633D01*
X52662961Y-144677750D01*
X52662949Y-144677756D01*
X52419579Y-144810647D01*
X52419571Y-144810651D01*
X52415685Y-144812774D01*
X52412135Y-144815431D01*
X52412131Y-144815434D01*
X52190156Y-144981602D01*
X52190149Y-144981607D01*
X52186605Y-144984261D01*
X52183474Y-144987391D01*
X52183467Y-144987398D01*
X51987398Y-145183467D01*
X51987391Y-145183474D01*
X51984261Y-145186605D01*
X51981607Y-145190149D01*
X51981602Y-145190156D01*
X51960478Y-145218375D01*
X51812774Y-145415685D01*
X51810651Y-145419571D01*
X51810647Y-145419579D01*
X51677756Y-145662949D01*
X51677750Y-145662961D01*
X51675633Y-145666839D01*
X51674089Y-145670976D01*
X51674085Y-145670987D01*
X51577176Y-145930810D01*
X51577173Y-145930818D01*
X51575631Y-145934954D01*
X51574690Y-145939276D01*
X51574690Y-145939279D01*
X51515746Y-146210238D01*
X51515744Y-146210248D01*
X51514804Y-146214572D01*
X51514488Y-146218983D01*
X51514487Y-146218994D01*
X51495272Y-146487654D01*
X51494390Y-146500000D01*
X50300500Y-146500000D01*
X50300500Y-140419518D01*
X57245000Y-140419518D01*
X57245353Y-140426114D01*
X57250573Y-140474667D01*
X57254111Y-140489641D01*
X57298547Y-140608777D01*
X57306962Y-140624189D01*
X57382498Y-140725092D01*
X57394907Y-140737501D01*
X57495810Y-140813037D01*
X57511222Y-140821452D01*
X57630358Y-140865888D01*
X57645332Y-140869426D01*
X57693885Y-140874646D01*
X57700482Y-140875000D01*
X58153674Y-140875000D01*
X58166549Y-140871549D01*
X58170000Y-140858674D01*
X58670000Y-140858674D01*
X58673450Y-140871549D01*
X58686326Y-140875000D01*
X59139518Y-140875000D01*
X59146114Y-140874646D01*
X59194667Y-140869426D01*
X59209641Y-140865888D01*
X59328777Y-140821452D01*
X59344189Y-140813037D01*
X59445092Y-140737501D01*
X59457501Y-140725092D01*
X59533037Y-140624189D01*
X59541452Y-140608777D01*
X59585888Y-140489641D01*
X59589426Y-140474667D01*
X59594646Y-140426114D01*
X59595000Y-140419518D01*
X59595000Y-140412579D01*
X87752911Y-140412579D01*
X87753432Y-140423838D01*
X87798080Y-140580757D01*
X87802208Y-140591413D01*
X87894160Y-140776078D01*
X87900169Y-140785782D01*
X88024487Y-140950406D01*
X88032181Y-140958847D01*
X88184635Y-141097826D01*
X88193740Y-141104702D01*
X88369140Y-141213305D01*
X88379362Y-141218395D01*
X88571714Y-141292913D01*
X88582708Y-141296041D01*
X88636570Y-141306109D01*
X88647598Y-141305727D01*
X88650000Y-141294960D01*
X89150000Y-141294960D01*
X89152401Y-141305727D01*
X89163429Y-141306109D01*
X89217291Y-141296041D01*
X89228285Y-141292913D01*
X89420637Y-141218395D01*
X89430859Y-141213305D01*
X89606259Y-141104702D01*
X89615364Y-141097826D01*
X89767818Y-140958847D01*
X89775512Y-140950406D01*
X89899830Y-140785782D01*
X89905839Y-140776078D01*
X89997791Y-140591413D01*
X90001919Y-140580757D01*
X90046567Y-140423838D01*
X90047088Y-140412579D01*
X90036120Y-140410000D01*
X89166326Y-140410000D01*
X89153450Y-140413450D01*
X89150000Y-140426326D01*
X89150000Y-141294960D01*
X88650000Y-141294960D01*
X88650000Y-140426326D01*
X88646549Y-140413450D01*
X88633674Y-140410000D01*
X87763880Y-140410000D01*
X87752911Y-140412579D01*
X59595000Y-140412579D01*
X59595000Y-139966326D01*
X59591549Y-139953450D01*
X59578674Y-139950000D01*
X58686326Y-139950000D01*
X58673450Y-139953450D01*
X58670000Y-139966326D01*
X58670000Y-140858674D01*
X58170000Y-140858674D01*
X58170000Y-139966326D01*
X58166549Y-139953450D01*
X58153674Y-139950000D01*
X57261326Y-139950000D01*
X57248450Y-139953450D01*
X57245000Y-139966326D01*
X57245000Y-140419518D01*
X50300500Y-140419518D01*
X50300500Y-137700000D01*
X56739802Y-137700000D01*
X56740149Y-137704631D01*
X56755168Y-137905059D01*
X56758568Y-137950421D01*
X56814448Y-138195247D01*
X56816143Y-138199565D01*
X56816144Y-138199569D01*
X56904496Y-138424686D01*
X56904499Y-138424692D01*
X56906194Y-138429011D01*
X56908512Y-138433026D01*
X56908515Y-138433032D01*
X56979404Y-138555814D01*
X57031755Y-138646489D01*
X57042186Y-138659569D01*
X57185434Y-138839197D01*
X57185439Y-138839202D01*
X57188328Y-138842825D01*
X57207395Y-138860516D01*
X57239198Y-138907981D01*
X57246344Y-138964669D01*
X57245353Y-138973883D01*
X57245000Y-138980482D01*
X57245000Y-139433674D01*
X57248450Y-139446549D01*
X57261326Y-139450000D01*
X59578674Y-139450000D01*
X59591549Y-139446549D01*
X59595000Y-139433674D01*
X59595000Y-138980482D01*
X59594646Y-138973889D01*
X59593656Y-138964679D01*
X59600800Y-138907984D01*
X59632603Y-138860517D01*
X59651672Y-138842825D01*
X59808245Y-138646489D01*
X59933806Y-138429011D01*
X60025552Y-138195247D01*
X60081432Y-137950421D01*
X60100198Y-137700000D01*
X60081432Y-137449579D01*
X60025552Y-137204753D01*
X59933806Y-136970989D01*
X59931484Y-136966967D01*
X59813146Y-136761999D01*
X59796533Y-136699999D01*
X59813145Y-136638001D01*
X59933806Y-136429011D01*
X60025552Y-136195247D01*
X60081432Y-135950421D01*
X60100198Y-135700000D01*
X60081432Y-135449579D01*
X60025552Y-135204753D01*
X59933806Y-134970989D01*
X59813145Y-134761999D01*
X59796533Y-134700000D01*
X59813146Y-134638000D01*
X59931484Y-134433032D01*
X59933806Y-134429011D01*
X60025552Y-134195247D01*
X60081432Y-133950421D01*
X60100198Y-133700000D01*
X60081432Y-133449579D01*
X60025552Y-133204753D01*
X59933806Y-132970989D01*
X59808245Y-132753511D01*
X59651672Y-132557175D01*
X59467586Y-132386368D01*
X59463757Y-132383757D01*
X59463754Y-132383755D01*
X59357693Y-132311444D01*
X59260099Y-132244906D01*
X59255913Y-132242890D01*
X59038024Y-132137960D01*
X59038018Y-132137957D01*
X59033845Y-132135948D01*
X59029423Y-132134584D01*
X59029413Y-132134580D01*
X58798309Y-132063294D01*
X58798303Y-132063292D01*
X58793879Y-132061928D01*
X58789302Y-132061238D01*
X58789293Y-132061236D01*
X58550146Y-132025191D01*
X58550144Y-132025190D01*
X58545561Y-132024500D01*
X58294439Y-132024500D01*
X58289856Y-132025190D01*
X58289853Y-132025191D01*
X58050706Y-132061236D01*
X58050694Y-132061238D01*
X58046121Y-132061928D01*
X58041699Y-132063291D01*
X58041690Y-132063294D01*
X57810586Y-132134580D01*
X57810571Y-132134585D01*
X57806155Y-132135948D01*
X57801985Y-132137955D01*
X57801975Y-132137960D01*
X57584086Y-132242890D01*
X57584079Y-132242893D01*
X57579901Y-132244906D01*
X57576068Y-132247519D01*
X57576065Y-132247521D01*
X57376245Y-132383755D01*
X57376235Y-132383762D01*
X57372414Y-132386368D01*
X57369018Y-132389518D01*
X57369008Y-132389527D01*
X57191732Y-132554016D01*
X57191728Y-132554019D01*
X57188328Y-132557175D01*
X57185438Y-132560797D01*
X57185435Y-132560802D01*
X57034647Y-132749884D01*
X57031755Y-132753511D01*
X57029436Y-132757527D01*
X57029435Y-132757529D01*
X56908515Y-132966967D01*
X56908509Y-132966978D01*
X56906194Y-132970989D01*
X56904501Y-132975302D01*
X56904496Y-132975313D01*
X56816144Y-133200430D01*
X56816141Y-133200437D01*
X56814448Y-133204753D01*
X56813416Y-133209271D01*
X56813415Y-133209277D01*
X56759599Y-133445059D01*
X56759597Y-133445067D01*
X56758568Y-133449579D01*
X56739802Y-133700000D01*
X56758568Y-133950421D01*
X56814448Y-134195247D01*
X56816143Y-134199565D01*
X56816144Y-134199569D01*
X56904496Y-134424686D01*
X56904499Y-134424692D01*
X56906194Y-134429011D01*
X56908512Y-134433026D01*
X56908515Y-134433032D01*
X57026853Y-134638000D01*
X57043466Y-134700000D01*
X57026853Y-134762000D01*
X56908515Y-134966967D01*
X56908509Y-134966978D01*
X56906194Y-134970989D01*
X56904501Y-134975302D01*
X56904496Y-134975313D01*
X56816144Y-135200430D01*
X56816141Y-135200437D01*
X56814448Y-135204753D01*
X56813416Y-135209271D01*
X56813415Y-135209277D01*
X56759599Y-135445059D01*
X56759597Y-135445067D01*
X56758568Y-135449579D01*
X56739802Y-135700000D01*
X56740149Y-135704631D01*
X56755168Y-135905059D01*
X56758568Y-135950421D01*
X56814448Y-136195247D01*
X56816143Y-136199565D01*
X56816144Y-136199569D01*
X56904496Y-136424686D01*
X56904499Y-136424692D01*
X56906194Y-136429011D01*
X56908512Y-136433026D01*
X56908515Y-136433032D01*
X57026853Y-136637999D01*
X57043466Y-136699999D01*
X57026853Y-136761998D01*
X56908518Y-136966961D01*
X56908510Y-136966977D01*
X56906194Y-136970989D01*
X56904501Y-136975302D01*
X56904496Y-136975313D01*
X56816144Y-137200430D01*
X56816141Y-137200437D01*
X56814448Y-137204753D01*
X56813416Y-137209271D01*
X56813415Y-137209277D01*
X56759599Y-137445059D01*
X56759597Y-137445067D01*
X56758568Y-137449579D01*
X56739802Y-137700000D01*
X50300500Y-137700000D01*
X50300500Y-125000000D01*
X56739802Y-125000000D01*
X56740149Y-125004631D01*
X56755168Y-125205059D01*
X56758568Y-125250421D01*
X56814448Y-125495247D01*
X56816142Y-125499564D01*
X56816144Y-125499569D01*
X56894703Y-125699734D01*
X56903096Y-125751690D01*
X56889184Y-125802447D01*
X56814004Y-125946373D01*
X56814004Y-125946374D01*
X56811091Y-125951951D01*
X56809362Y-125957991D01*
X56809360Y-125957998D01*
X56756734Y-126141919D01*
X56755114Y-126147582D01*
X56754592Y-126153445D01*
X56754592Y-126153449D01*
X56744742Y-126264232D01*
X56744741Y-126264250D01*
X56744500Y-126266963D01*
X56744500Y-126269705D01*
X56744500Y-126269706D01*
X56744500Y-127730292D01*
X56744500Y-127730314D01*
X56744501Y-127733036D01*
X56744742Y-127735749D01*
X56744743Y-127735767D01*
X56754592Y-127846550D01*
X56755114Y-127852418D01*
X56756731Y-127858070D01*
X56756733Y-127858079D01*
X56808802Y-128040050D01*
X56811091Y-128048049D01*
X56814004Y-128053625D01*
X56886823Y-128193032D01*
X56905302Y-128228407D01*
X57033891Y-128386109D01*
X57191593Y-128514698D01*
X57371951Y-128608909D01*
X57567582Y-128664886D01*
X57686963Y-128675500D01*
X59153036Y-128675499D01*
X59272418Y-128664886D01*
X59468049Y-128608909D01*
X59648407Y-128514698D01*
X59806109Y-128386109D01*
X59934698Y-128228407D01*
X60028909Y-128048049D01*
X60084886Y-127852418D01*
X60095500Y-127733037D01*
X60095499Y-126266964D01*
X60084886Y-126147582D01*
X60028909Y-125951951D01*
X59950815Y-125802447D01*
X59936903Y-125751690D01*
X59945296Y-125699734D01*
X60025552Y-125495247D01*
X60081432Y-125250421D01*
X60100198Y-125000000D01*
X60081432Y-124749579D01*
X60025552Y-124504753D01*
X59933806Y-124270989D01*
X59888797Y-124193032D01*
X59813146Y-124062000D01*
X59796533Y-124000000D01*
X59813146Y-123938000D01*
X59931484Y-123733032D01*
X59933806Y-123729011D01*
X60025552Y-123495247D01*
X60081432Y-123250421D01*
X60100198Y-123000000D01*
X60081432Y-122749579D01*
X60025552Y-122504753D01*
X59933806Y-122270989D01*
X59813145Y-122061999D01*
X59796533Y-122000000D01*
X59813146Y-121938000D01*
X59931484Y-121733032D01*
X59933806Y-121729011D01*
X60025552Y-121495247D01*
X60081432Y-121250421D01*
X60100198Y-121000000D01*
X60081432Y-120749579D01*
X60025552Y-120504753D01*
X59933806Y-120270989D01*
X59808245Y-120053511D01*
X59651672Y-119857175D01*
X59467586Y-119686368D01*
X59463757Y-119683757D01*
X59463754Y-119683755D01*
X59357693Y-119611444D01*
X59260099Y-119544906D01*
X59255913Y-119542890D01*
X59038024Y-119437960D01*
X59038018Y-119437957D01*
X59033845Y-119435948D01*
X59029423Y-119434584D01*
X59029413Y-119434580D01*
X58798309Y-119363294D01*
X58798303Y-119363292D01*
X58793879Y-119361928D01*
X58789302Y-119361238D01*
X58789293Y-119361236D01*
X58550146Y-119325191D01*
X58550144Y-119325190D01*
X58545561Y-119324500D01*
X58294439Y-119324500D01*
X58289856Y-119325190D01*
X58289853Y-119325191D01*
X58050706Y-119361236D01*
X58050694Y-119361238D01*
X58046121Y-119361928D01*
X58041699Y-119363291D01*
X58041690Y-119363294D01*
X57810586Y-119434580D01*
X57810571Y-119434585D01*
X57806155Y-119435948D01*
X57801985Y-119437955D01*
X57801975Y-119437960D01*
X57584086Y-119542890D01*
X57584079Y-119542893D01*
X57579901Y-119544906D01*
X57576068Y-119547519D01*
X57576065Y-119547521D01*
X57376245Y-119683755D01*
X57376235Y-119683762D01*
X57372414Y-119686368D01*
X57369018Y-119689518D01*
X57369008Y-119689527D01*
X57191732Y-119854016D01*
X57191728Y-119854019D01*
X57188328Y-119857175D01*
X57185438Y-119860797D01*
X57185435Y-119860802D01*
X57034647Y-120049884D01*
X57031755Y-120053511D01*
X57029436Y-120057527D01*
X57029435Y-120057529D01*
X56908515Y-120266967D01*
X56908509Y-120266978D01*
X56906194Y-120270989D01*
X56904501Y-120275302D01*
X56904496Y-120275313D01*
X56816144Y-120500430D01*
X56816141Y-120500437D01*
X56814448Y-120504753D01*
X56813416Y-120509271D01*
X56813415Y-120509277D01*
X56759599Y-120745059D01*
X56759597Y-120745067D01*
X56758568Y-120749579D01*
X56739802Y-121000000D01*
X56758568Y-121250421D01*
X56814448Y-121495247D01*
X56816143Y-121499565D01*
X56816144Y-121499569D01*
X56904496Y-121724686D01*
X56904499Y-121724692D01*
X56906194Y-121729011D01*
X56908512Y-121733026D01*
X56908515Y-121733032D01*
X57026853Y-121938000D01*
X57043466Y-122000000D01*
X57026853Y-122062000D01*
X56908515Y-122266967D01*
X56908509Y-122266978D01*
X56906194Y-122270989D01*
X56904501Y-122275302D01*
X56904496Y-122275313D01*
X56816144Y-122500430D01*
X56816141Y-122500437D01*
X56814448Y-122504753D01*
X56813416Y-122509271D01*
X56813415Y-122509277D01*
X56759599Y-122745059D01*
X56759597Y-122745067D01*
X56758568Y-122749579D01*
X56739802Y-123000000D01*
X56740149Y-123004631D01*
X56755168Y-123205059D01*
X56758568Y-123250421D01*
X56814448Y-123495247D01*
X56816143Y-123499565D01*
X56816144Y-123499569D01*
X56904496Y-123724686D01*
X56904499Y-123724692D01*
X56906194Y-123729011D01*
X56908512Y-123733026D01*
X56908515Y-123733032D01*
X57026853Y-123938000D01*
X57043466Y-124000000D01*
X57026853Y-124062000D01*
X56908515Y-124266967D01*
X56908509Y-124266978D01*
X56906194Y-124270989D01*
X56904501Y-124275302D01*
X56904496Y-124275313D01*
X56816144Y-124500430D01*
X56816141Y-124500437D01*
X56814448Y-124504753D01*
X56813416Y-124509271D01*
X56813415Y-124509277D01*
X56759599Y-124745059D01*
X56759597Y-124745067D01*
X56758568Y-124749579D01*
X56739802Y-125000000D01*
X50300500Y-125000000D01*
X50300500Y-112760000D01*
X56739802Y-112760000D01*
X56758568Y-113010421D01*
X56759598Y-113014934D01*
X56759599Y-113014940D01*
X56784706Y-113124940D01*
X56814448Y-113255247D01*
X56816142Y-113259564D01*
X56816144Y-113259569D01*
X56894703Y-113459734D01*
X56903096Y-113511690D01*
X56889184Y-113562447D01*
X56814004Y-113706373D01*
X56814004Y-113706374D01*
X56811091Y-113711951D01*
X56809362Y-113717991D01*
X56809360Y-113717998D01*
X56756734Y-113901919D01*
X56755114Y-113907582D01*
X56754592Y-113913445D01*
X56754592Y-113913449D01*
X56744742Y-114024232D01*
X56744741Y-114024250D01*
X56744500Y-114026963D01*
X56744500Y-114029705D01*
X56744500Y-114029706D01*
X56744500Y-115490292D01*
X56744500Y-115490314D01*
X56744501Y-115493036D01*
X56744742Y-115495749D01*
X56744743Y-115495767D01*
X56754592Y-115606550D01*
X56755114Y-115612418D01*
X56756731Y-115618070D01*
X56756733Y-115618079D01*
X56809360Y-115802001D01*
X56811091Y-115808049D01*
X56905302Y-115988407D01*
X56909275Y-115993279D01*
X56909276Y-115993281D01*
X57029920Y-116141239D01*
X57033891Y-116146109D01*
X57191593Y-116274698D01*
X57371951Y-116368909D01*
X57567582Y-116424886D01*
X57686963Y-116435500D01*
X59153036Y-116435499D01*
X59272418Y-116424886D01*
X59468049Y-116368909D01*
X59648407Y-116274698D01*
X59806109Y-116146109D01*
X59934698Y-115988407D01*
X60028909Y-115808049D01*
X60084886Y-115612418D01*
X60095500Y-115493037D01*
X60095499Y-114026964D01*
X60084886Y-113907582D01*
X60028909Y-113711951D01*
X59950815Y-113562447D01*
X59936903Y-113511690D01*
X59945296Y-113459734D01*
X60025552Y-113255247D01*
X60081432Y-113010421D01*
X60100198Y-112760000D01*
X60081432Y-112509579D01*
X60025552Y-112264753D01*
X59933806Y-112030989D01*
X59813145Y-111821999D01*
X59796533Y-111760000D01*
X59813146Y-111698000D01*
X59870297Y-111599011D01*
X59933806Y-111489011D01*
X60025552Y-111255247D01*
X60081432Y-111010421D01*
X60100198Y-110760000D01*
X60081432Y-110509579D01*
X60025552Y-110264753D01*
X59933806Y-110030989D01*
X59813145Y-109821999D01*
X59796533Y-109760000D01*
X59813146Y-109698000D01*
X59931484Y-109493032D01*
X59933806Y-109489011D01*
X60025552Y-109255247D01*
X60081432Y-109010421D01*
X60100198Y-108760000D01*
X60081432Y-108509579D01*
X60025552Y-108264753D01*
X59933806Y-108030989D01*
X59926065Y-108017582D01*
X59917580Y-108002885D01*
X59808245Y-107813511D01*
X59651672Y-107617175D01*
X59508026Y-107483891D01*
X59470991Y-107449527D01*
X59470988Y-107449524D01*
X59467586Y-107446368D01*
X59463757Y-107443757D01*
X59463754Y-107443755D01*
X59329744Y-107352389D01*
X59260099Y-107304906D01*
X59255913Y-107302890D01*
X59038024Y-107197960D01*
X59038018Y-107197957D01*
X59033845Y-107195948D01*
X59029423Y-107194584D01*
X59029413Y-107194580D01*
X58798309Y-107123294D01*
X58798303Y-107123292D01*
X58793879Y-107121928D01*
X58789302Y-107121238D01*
X58789293Y-107121236D01*
X58550146Y-107085191D01*
X58550144Y-107085190D01*
X58545561Y-107084500D01*
X58294439Y-107084500D01*
X58289856Y-107085190D01*
X58289853Y-107085191D01*
X58050706Y-107121236D01*
X58050694Y-107121238D01*
X58046121Y-107121928D01*
X58041699Y-107123291D01*
X58041690Y-107123294D01*
X57810586Y-107194580D01*
X57810571Y-107194585D01*
X57806155Y-107195948D01*
X57801985Y-107197955D01*
X57801975Y-107197960D01*
X57584086Y-107302890D01*
X57584079Y-107302893D01*
X57579901Y-107304906D01*
X57576068Y-107307519D01*
X57576065Y-107307521D01*
X57376245Y-107443755D01*
X57376235Y-107443762D01*
X57372414Y-107446368D01*
X57369018Y-107449518D01*
X57369008Y-107449527D01*
X57191732Y-107614016D01*
X57191728Y-107614019D01*
X57188328Y-107617175D01*
X57185438Y-107620797D01*
X57185435Y-107620802D01*
X57168855Y-107641593D01*
X57031755Y-107813511D01*
X57029436Y-107817527D01*
X57029435Y-107817529D01*
X56908515Y-108026967D01*
X56908509Y-108026978D01*
X56906194Y-108030989D01*
X56904501Y-108035302D01*
X56904496Y-108035313D01*
X56816144Y-108260430D01*
X56816141Y-108260437D01*
X56814448Y-108264753D01*
X56813416Y-108269271D01*
X56813415Y-108269277D01*
X56759599Y-108505059D01*
X56759597Y-108505067D01*
X56758568Y-108509579D01*
X56739802Y-108760000D01*
X56758568Y-109010421D01*
X56814448Y-109255247D01*
X56816143Y-109259565D01*
X56816144Y-109259569D01*
X56904496Y-109484686D01*
X56904499Y-109484692D01*
X56906194Y-109489011D01*
X56908512Y-109493026D01*
X56908515Y-109493032D01*
X57026853Y-109698000D01*
X57043466Y-109760000D01*
X57026853Y-109822000D01*
X56908515Y-110026967D01*
X56908509Y-110026978D01*
X56906194Y-110030989D01*
X56904501Y-110035302D01*
X56904496Y-110035313D01*
X56816144Y-110260430D01*
X56816141Y-110260437D01*
X56814448Y-110264753D01*
X56813416Y-110269271D01*
X56813415Y-110269277D01*
X56759599Y-110505059D01*
X56759597Y-110505067D01*
X56758568Y-110509579D01*
X56758221Y-110514198D01*
X56758221Y-110514204D01*
X56750325Y-110619579D01*
X56739802Y-110760000D01*
X56758568Y-111010421D01*
X56759598Y-111014934D01*
X56759599Y-111014940D01*
X56784706Y-111124940D01*
X56814448Y-111255247D01*
X56816143Y-111259565D01*
X56816144Y-111259569D01*
X56904496Y-111484686D01*
X56904499Y-111484692D01*
X56906194Y-111489011D01*
X56908512Y-111493026D01*
X56908515Y-111493032D01*
X57026853Y-111698000D01*
X57043466Y-111760000D01*
X57026853Y-111822000D01*
X56908515Y-112026967D01*
X56908509Y-112026978D01*
X56906194Y-112030989D01*
X56904501Y-112035302D01*
X56904496Y-112035313D01*
X56816144Y-112260430D01*
X56816141Y-112260437D01*
X56814448Y-112264753D01*
X56813416Y-112269271D01*
X56813415Y-112269277D01*
X56759599Y-112505059D01*
X56759597Y-112505067D01*
X56758568Y-112509579D01*
X56758221Y-112514198D01*
X56758221Y-112514204D01*
X56750325Y-112619579D01*
X56739802Y-112760000D01*
X50300500Y-112760000D01*
X50300500Y-103764518D01*
X59610000Y-103764518D01*
X59610353Y-103771114D01*
X59615573Y-103819667D01*
X59619111Y-103834641D01*
X59663547Y-103953777D01*
X59671962Y-103969189D01*
X59747498Y-104070092D01*
X59759907Y-104082501D01*
X59860810Y-104158037D01*
X59876222Y-104166452D01*
X59995358Y-104210888D01*
X60010332Y-104214426D01*
X60058885Y-104219646D01*
X60065482Y-104220000D01*
X60693674Y-104220000D01*
X60706549Y-104216549D01*
X60710000Y-104203674D01*
X61210000Y-104203674D01*
X61213450Y-104216549D01*
X61226326Y-104220000D01*
X61854518Y-104220000D01*
X61861114Y-104219646D01*
X61909667Y-104214426D01*
X61924644Y-104210887D01*
X61952168Y-104200622D01*
X62010954Y-104193771D01*
X62066220Y-104214948D01*
X62105376Y-104259329D01*
X62119500Y-104316804D01*
X62119500Y-126952078D01*
X62119248Y-126959969D01*
X62114821Y-127029408D01*
X62115378Y-127034645D01*
X62115379Y-127034647D01*
X62125577Y-127130378D01*
X62125828Y-127132996D01*
X62133991Y-127228905D01*
X62133992Y-127228912D01*
X62134438Y-127234149D01*
X62135762Y-127239237D01*
X62135765Y-127239250D01*
X62135831Y-127239504D01*
X62139127Y-127257571D01*
X62139155Y-127257834D01*
X62139156Y-127257843D01*
X62139715Y-127263081D01*
X62141147Y-127268138D01*
X62141149Y-127268148D01*
X62167383Y-127360787D01*
X62168071Y-127363321D01*
X62193652Y-127461562D01*
X62195821Y-127466362D01*
X62195823Y-127466366D01*
X62195929Y-127466601D01*
X62202233Y-127483858D01*
X62202303Y-127484106D01*
X62202307Y-127484118D01*
X62203743Y-127489186D01*
X62206013Y-127493937D01*
X62206014Y-127493939D01*
X62247518Y-127580796D01*
X62248627Y-127583182D01*
X62290447Y-127675697D01*
X62293392Y-127680055D01*
X62293394Y-127680058D01*
X62293545Y-127680281D01*
X62302680Y-127696234D01*
X62305062Y-127701218D01*
X62308102Y-127705516D01*
X62308103Y-127705518D01*
X62363687Y-127784109D01*
X62365184Y-127786275D01*
X62419083Y-127866022D01*
X62419087Y-127866027D01*
X62422038Y-127870393D01*
X62425679Y-127874192D01*
X62425685Y-127874199D01*
X62425860Y-127874381D01*
X62437563Y-127888564D01*
X62440755Y-127893077D01*
X62444483Y-127896805D01*
X62444484Y-127896806D01*
X62512538Y-127964860D01*
X62514380Y-127966741D01*
X62584641Y-128040050D01*
X62589075Y-128043329D01*
X62603023Y-128055345D01*
X73649945Y-139102266D01*
X73655347Y-139108023D01*
X73701325Y-139160264D01*
X73780370Y-139224088D01*
X73782355Y-139225726D01*
X73859970Y-139291166D01*
X73864727Y-139293957D01*
X73879863Y-139304423D01*
X73884160Y-139307893D01*
X73888763Y-139310464D01*
X73888764Y-139310465D01*
X73972816Y-139357419D01*
X73975074Y-139358712D01*
X74013725Y-139381393D01*
X74058097Y-139407432D01*
X74058101Y-139407433D01*
X74062646Y-139410101D01*
X74067801Y-139412046D01*
X74084501Y-139419809D01*
X74089315Y-139422499D01*
X74185088Y-139456337D01*
X74187473Y-139457208D01*
X74282507Y-139493073D01*
X74287878Y-139494111D01*
X74287920Y-139494120D01*
X74305688Y-139498948D01*
X74310887Y-139500785D01*
X74411017Y-139517953D01*
X74413481Y-139518403D01*
X74513226Y-139537695D01*
X74518723Y-139537811D01*
X74537065Y-139539567D01*
X74542502Y-139540500D01*
X74644034Y-139540500D01*
X74646665Y-139540527D01*
X74748170Y-139542683D01*
X74753520Y-139541882D01*
X74753629Y-139541866D01*
X74771986Y-139540500D01*
X87695598Y-139540500D01*
X87755937Y-139556171D01*
X87801025Y-139599223D01*
X87819466Y-139658774D01*
X87806598Y-139719773D01*
X87802206Y-139728591D01*
X87798080Y-139739242D01*
X87753432Y-139896161D01*
X87752911Y-139907420D01*
X87763880Y-139910000D01*
X90036120Y-139910000D01*
X90047088Y-139907420D01*
X90046567Y-139896161D01*
X90001919Y-139739242D01*
X89997791Y-139728586D01*
X89936450Y-139605397D01*
X89923521Y-139554307D01*
X89932976Y-139502462D01*
X89963103Y-139459233D01*
X90131672Y-139302825D01*
X90288245Y-139106489D01*
X90413806Y-138889011D01*
X90505552Y-138655247D01*
X90561432Y-138410421D01*
X90580198Y-138160000D01*
X90561432Y-137909579D01*
X90505552Y-137664753D01*
X90413806Y-137430989D01*
X90293145Y-137221999D01*
X90276533Y-137160000D01*
X90293146Y-137098000D01*
X90413806Y-136889011D01*
X90505552Y-136655247D01*
X90561432Y-136410421D01*
X90580198Y-136160000D01*
X90561432Y-135909579D01*
X90505552Y-135664753D01*
X90425295Y-135460264D01*
X90416903Y-135408309D01*
X90430814Y-135357554D01*
X90508909Y-135208049D01*
X90564886Y-135012418D01*
X90575500Y-134893037D01*
X90575499Y-133426964D01*
X90564886Y-133307582D01*
X90508909Y-133111951D01*
X90414698Y-132931593D01*
X90286109Y-132773891D01*
X90128407Y-132645302D01*
X90122833Y-132642390D01*
X90122831Y-132642389D01*
X90038227Y-132598196D01*
X89948049Y-132551091D01*
X89942004Y-132549361D01*
X89942001Y-132549360D01*
X89758080Y-132496734D01*
X89758079Y-132496733D01*
X89752418Y-132495114D01*
X89746552Y-132494592D01*
X89746550Y-132494592D01*
X89635767Y-132484742D01*
X89635750Y-132484741D01*
X89633037Y-132484500D01*
X89630293Y-132484500D01*
X88169707Y-132484500D01*
X88169684Y-132484500D01*
X88166964Y-132484501D01*
X88164251Y-132484742D01*
X88164232Y-132484743D01*
X88053448Y-132494592D01*
X88053442Y-132494592D01*
X88047582Y-132495114D01*
X88041930Y-132496730D01*
X88041920Y-132496733D01*
X87857998Y-132549360D01*
X87857991Y-132549362D01*
X87851951Y-132551091D01*
X87846375Y-132554003D01*
X87846374Y-132554004D01*
X87677168Y-132642389D01*
X87677161Y-132642393D01*
X87671593Y-132645302D01*
X87666724Y-132649271D01*
X87666718Y-132649276D01*
X87541226Y-132751602D01*
X87504454Y-132772317D01*
X87462865Y-132779500D01*
X76363183Y-132779500D01*
X76315730Y-132770061D01*
X76275502Y-132743181D01*
X69996819Y-126464497D01*
X69969939Y-126424269D01*
X69960500Y-126376816D01*
X69960500Y-115393904D01*
X69974255Y-115337141D01*
X70012469Y-115292971D01*
X70066663Y-115271194D01*
X70124815Y-115276641D01*
X70174022Y-115308103D01*
X70204641Y-115340050D01*
X70209075Y-115343329D01*
X70223023Y-115355345D01*
X83269953Y-128402275D01*
X83275355Y-128408032D01*
X83321325Y-128460264D01*
X83392347Y-128517610D01*
X83400329Y-128524055D01*
X83402339Y-128525713D01*
X83479970Y-128591166D01*
X83484727Y-128593957D01*
X83499863Y-128604423D01*
X83504160Y-128607893D01*
X83508763Y-128610464D01*
X83508764Y-128610465D01*
X83592816Y-128657419D01*
X83595074Y-128658712D01*
X83633725Y-128681393D01*
X83678097Y-128707432D01*
X83678101Y-128707433D01*
X83682646Y-128710101D01*
X83687801Y-128712046D01*
X83704501Y-128719809D01*
X83709315Y-128722499D01*
X83805065Y-128756329D01*
X83807537Y-128757232D01*
X83902506Y-128793073D01*
X83907915Y-128794119D01*
X83925680Y-128798946D01*
X83925914Y-128799028D01*
X83930887Y-128800785D01*
X83936079Y-128801675D01*
X83936082Y-128801676D01*
X83959256Y-128805649D01*
X84030982Y-128817948D01*
X84033422Y-128818392D01*
X84133226Y-128837695D01*
X84138723Y-128837811D01*
X84157065Y-128839567D01*
X84162502Y-128840500D01*
X84264034Y-128840500D01*
X84266665Y-128840527D01*
X84368170Y-128842683D01*
X84373520Y-128841882D01*
X84373629Y-128841866D01*
X84391986Y-128840500D01*
X87912242Y-128840500D01*
X87948792Y-128846009D01*
X87982094Y-128862046D01*
X88059901Y-128915094D01*
X88286155Y-129024052D01*
X88290583Y-129025418D01*
X88290586Y-129025419D01*
X88406138Y-129061062D01*
X88526121Y-129098072D01*
X88774439Y-129135500D01*
X89020924Y-129135500D01*
X89025561Y-129135500D01*
X89273879Y-129098072D01*
X89513845Y-129024052D01*
X89740099Y-128915094D01*
X89947586Y-128773632D01*
X90131672Y-128602825D01*
X90288245Y-128406489D01*
X90413806Y-128189011D01*
X90505552Y-127955247D01*
X90561432Y-127710421D01*
X90580198Y-127460000D01*
X90561432Y-127209579D01*
X90505552Y-126964753D01*
X90413806Y-126730989D01*
X90293145Y-126521999D01*
X90276533Y-126460000D01*
X90293146Y-126398000D01*
X90367216Y-126269707D01*
X90413806Y-126189011D01*
X90505552Y-125955247D01*
X90561432Y-125710421D01*
X90580198Y-125460000D01*
X90561432Y-125209579D01*
X90505552Y-124964753D01*
X90413806Y-124730989D01*
X90293145Y-124521999D01*
X90276533Y-124460000D01*
X90293146Y-124398000D01*
X90413806Y-124189011D01*
X90505552Y-123955247D01*
X90561432Y-123710421D01*
X90580198Y-123460000D01*
X90561432Y-123209579D01*
X90505552Y-122964753D01*
X90425295Y-122760264D01*
X90416903Y-122708309D01*
X90430814Y-122657554D01*
X90508909Y-122508049D01*
X90564886Y-122312418D01*
X90575500Y-122193037D01*
X90575499Y-120726964D01*
X90564886Y-120607582D01*
X90508909Y-120411951D01*
X90414698Y-120231593D01*
X90286109Y-120073891D01*
X90128407Y-119945302D01*
X90122833Y-119942390D01*
X90122831Y-119942389D01*
X90038228Y-119898196D01*
X89948049Y-119851091D01*
X89942004Y-119849361D01*
X89942001Y-119849360D01*
X89758080Y-119796734D01*
X89758079Y-119796733D01*
X89752418Y-119795114D01*
X89746552Y-119794592D01*
X89746550Y-119794592D01*
X89635767Y-119784742D01*
X89635750Y-119784741D01*
X89633037Y-119784500D01*
X89630293Y-119784500D01*
X88169707Y-119784500D01*
X88169684Y-119784500D01*
X88166964Y-119784501D01*
X88164251Y-119784742D01*
X88164232Y-119784743D01*
X88053448Y-119794592D01*
X88053442Y-119794592D01*
X88047582Y-119795114D01*
X88041930Y-119796730D01*
X88041920Y-119796733D01*
X87857998Y-119849360D01*
X87857991Y-119849362D01*
X87851951Y-119851091D01*
X87846375Y-119854003D01*
X87846374Y-119854004D01*
X87677168Y-119942389D01*
X87677161Y-119942393D01*
X87671593Y-119945302D01*
X87666724Y-119949271D01*
X87666718Y-119949276D01*
X87541226Y-120051602D01*
X87504454Y-120072317D01*
X87462865Y-120079500D01*
X87158184Y-120079500D01*
X87110731Y-120070061D01*
X87070503Y-120043181D01*
X80156819Y-113129497D01*
X80129939Y-113089269D01*
X80120500Y-113041816D01*
X80120500Y-110313904D01*
X80134255Y-110257141D01*
X80172469Y-110212971D01*
X80226663Y-110191194D01*
X80284815Y-110196641D01*
X80334022Y-110228103D01*
X80364641Y-110260050D01*
X80369075Y-110263329D01*
X80383023Y-110275345D01*
X85919953Y-115812275D01*
X85925355Y-115818032D01*
X85971325Y-115870264D01*
X85975421Y-115873571D01*
X85975426Y-115873576D01*
X86050318Y-115934046D01*
X86052336Y-115935711D01*
X86129970Y-116001167D01*
X86134512Y-116003832D01*
X86134516Y-116003835D01*
X86134726Y-116003958D01*
X86149873Y-116014431D01*
X86154160Y-116017893D01*
X86158760Y-116020462D01*
X86158762Y-116020464D01*
X86242801Y-116067410D01*
X86245059Y-116068703D01*
X86283388Y-116091195D01*
X86328097Y-116117432D01*
X86328101Y-116117433D01*
X86332646Y-116120101D01*
X86337801Y-116122046D01*
X86354501Y-116129809D01*
X86359315Y-116132499D01*
X86455088Y-116166337D01*
X86457473Y-116167208D01*
X86552507Y-116203073D01*
X86557878Y-116204111D01*
X86557920Y-116204120D01*
X86575688Y-116208948D01*
X86580887Y-116210785D01*
X86681080Y-116227964D01*
X86683428Y-116228393D01*
X86783227Y-116247695D01*
X86788723Y-116247811D01*
X86807065Y-116249567D01*
X86812502Y-116250500D01*
X86914034Y-116250500D01*
X86916665Y-116250527D01*
X87018170Y-116252683D01*
X87023520Y-116251882D01*
X87023629Y-116251866D01*
X87041986Y-116250500D01*
X87912242Y-116250500D01*
X87948792Y-116256009D01*
X87982094Y-116272046D01*
X88059901Y-116325094D01*
X88286155Y-116434052D01*
X88290583Y-116435418D01*
X88290586Y-116435419D01*
X88290849Y-116435500D01*
X88526121Y-116508072D01*
X88774439Y-116545500D01*
X89020924Y-116545500D01*
X89025561Y-116545500D01*
X89273879Y-116508072D01*
X89513845Y-116434052D01*
X89740099Y-116325094D01*
X89947586Y-116183632D01*
X90131672Y-116012825D01*
X90288245Y-115816489D01*
X90413806Y-115599011D01*
X90505552Y-115365247D01*
X90561432Y-115120421D01*
X90580198Y-114870000D01*
X90561432Y-114619579D01*
X90505552Y-114374753D01*
X90413806Y-114140989D01*
X90293145Y-113931999D01*
X90276533Y-113870000D01*
X90293146Y-113808000D01*
X90351820Y-113706374D01*
X90413806Y-113599011D01*
X90505552Y-113365247D01*
X90561432Y-113120421D01*
X90580198Y-112870000D01*
X90561432Y-112619579D01*
X90505552Y-112374753D01*
X90413806Y-112140989D01*
X90293145Y-111931999D01*
X90276533Y-111870000D01*
X90293146Y-111808000D01*
X90320859Y-111760000D01*
X90413806Y-111599011D01*
X90505552Y-111365247D01*
X90561432Y-111120421D01*
X90580198Y-110870000D01*
X90561432Y-110619579D01*
X90505552Y-110374753D01*
X90425295Y-110170264D01*
X90416903Y-110118309D01*
X90430814Y-110067554D01*
X90508909Y-109918049D01*
X90564886Y-109722418D01*
X90575500Y-109603037D01*
X90575499Y-108136964D01*
X90564886Y-108017582D01*
X90508909Y-107821951D01*
X90414698Y-107641593D01*
X90286109Y-107483891D01*
X90128407Y-107355302D01*
X90122833Y-107352390D01*
X90122831Y-107352389D01*
X90028069Y-107302890D01*
X89948049Y-107261091D01*
X89942004Y-107259361D01*
X89942001Y-107259360D01*
X89758080Y-107206734D01*
X89758079Y-107206733D01*
X89752418Y-107205114D01*
X89746552Y-107204592D01*
X89746550Y-107204592D01*
X89635767Y-107194742D01*
X89635750Y-107194741D01*
X89633037Y-107194500D01*
X89630293Y-107194500D01*
X88169707Y-107194500D01*
X88169684Y-107194500D01*
X88166964Y-107194501D01*
X88164251Y-107194742D01*
X88164232Y-107194743D01*
X88053448Y-107204592D01*
X88053442Y-107204592D01*
X88047582Y-107205114D01*
X88041930Y-107206730D01*
X88041920Y-107206733D01*
X87935030Y-107237318D01*
X87898610Y-107247740D01*
X87841851Y-107250438D01*
X87789847Y-107227534D01*
X87753520Y-107183837D01*
X87740500Y-107128524D01*
X87740500Y-104155022D01*
X87746846Y-104115863D01*
X87765233Y-104080712D01*
X87773183Y-104070092D01*
X87920716Y-103873011D01*
X88047574Y-103640689D01*
X88140077Y-103392678D01*
X88196343Y-103134026D01*
X88215227Y-102870000D01*
X88196343Y-102605974D01*
X88140077Y-102347322D01*
X88047574Y-102099311D01*
X87920716Y-101866989D01*
X87762087Y-101655085D01*
X87607002Y-101500000D01*
X91494390Y-101500000D01*
X91494706Y-101504418D01*
X91514487Y-101781005D01*
X91514488Y-101781014D01*
X91514804Y-101785428D01*
X91515744Y-101789753D01*
X91515746Y-101789761D01*
X91569111Y-102035075D01*
X91575631Y-102065046D01*
X91577175Y-102069185D01*
X91577176Y-102069189D01*
X91613317Y-102166088D01*
X91675633Y-102333161D01*
X91677753Y-102337043D01*
X91677756Y-102337050D01*
X91782922Y-102529646D01*
X91812774Y-102584315D01*
X91984261Y-102813395D01*
X92186605Y-103015739D01*
X92415685Y-103187226D01*
X92666839Y-103324367D01*
X92934954Y-103424369D01*
X93214572Y-103485196D01*
X93500000Y-103505610D01*
X93785428Y-103485196D01*
X94065046Y-103424369D01*
X94333161Y-103324367D01*
X94584315Y-103187226D01*
X94813395Y-103015739D01*
X95015739Y-102813395D01*
X95187226Y-102584315D01*
X95324367Y-102333161D01*
X95424369Y-102065046D01*
X95485196Y-101785428D01*
X95505610Y-101500000D01*
X95485196Y-101214572D01*
X95424369Y-100934954D01*
X95324367Y-100666839D01*
X95187226Y-100415685D01*
X95015739Y-100186605D01*
X94813395Y-99984261D01*
X94584315Y-99812774D01*
X94580420Y-99810647D01*
X94337050Y-99677756D01*
X94337043Y-99677753D01*
X94333161Y-99675633D01*
X94329017Y-99674087D01*
X94329012Y-99674085D01*
X94069189Y-99577176D01*
X94069185Y-99577175D01*
X94065046Y-99575631D01*
X94035075Y-99569111D01*
X93789761Y-99515746D01*
X93789753Y-99515744D01*
X93785428Y-99514804D01*
X93781014Y-99514488D01*
X93781005Y-99514487D01*
X93504418Y-99494706D01*
X93500000Y-99494390D01*
X93495582Y-99494706D01*
X93218994Y-99514487D01*
X93218983Y-99514488D01*
X93214572Y-99514804D01*
X93210248Y-99515744D01*
X93210238Y-99515746D01*
X92939279Y-99574690D01*
X92939276Y-99574690D01*
X92934954Y-99575631D01*
X92930818Y-99577173D01*
X92930810Y-99577176D01*
X92670987Y-99674085D01*
X92670976Y-99674089D01*
X92666839Y-99675633D01*
X92662961Y-99677750D01*
X92662949Y-99677756D01*
X92419579Y-99810647D01*
X92419571Y-99810651D01*
X92415685Y-99812774D01*
X92412135Y-99815431D01*
X92412131Y-99815434D01*
X92190156Y-99981602D01*
X92190149Y-99981607D01*
X92186605Y-99984261D01*
X92183474Y-99987391D01*
X92183467Y-99987398D01*
X91987398Y-100183467D01*
X91987391Y-100183474D01*
X91984261Y-100186605D01*
X91981607Y-100190149D01*
X91981602Y-100190156D01*
X91960478Y-100218375D01*
X91812774Y-100415685D01*
X91810651Y-100419571D01*
X91810647Y-100419579D01*
X91677756Y-100662949D01*
X91677750Y-100662961D01*
X91675633Y-100666839D01*
X91674089Y-100670976D01*
X91674085Y-100670987D01*
X91577176Y-100930810D01*
X91577173Y-100930818D01*
X91575631Y-100934954D01*
X91574690Y-100939276D01*
X91574690Y-100939279D01*
X91515746Y-101210238D01*
X91515744Y-101210248D01*
X91514804Y-101214572D01*
X91514488Y-101218983D01*
X91514487Y-101218994D01*
X91496460Y-101471055D01*
X91494390Y-101500000D01*
X87607002Y-101500000D01*
X87574915Y-101467913D01*
X87363011Y-101309284D01*
X87130689Y-101182426D01*
X87126546Y-101180880D01*
X87126540Y-101180878D01*
X86886831Y-101091472D01*
X86882678Y-101089923D01*
X86878346Y-101088980D01*
X86878344Y-101088980D01*
X86628359Y-101034599D01*
X86628351Y-101034597D01*
X86624026Y-101033657D01*
X86619612Y-101033341D01*
X86619603Y-101033340D01*
X86364418Y-101015089D01*
X86360000Y-101014773D01*
X86355582Y-101015089D01*
X86100396Y-101033340D01*
X86100385Y-101033341D01*
X86095974Y-101033657D01*
X86091650Y-101034597D01*
X86091640Y-101034599D01*
X85841655Y-101088980D01*
X85841649Y-101088981D01*
X85837322Y-101089923D01*
X85833172Y-101091470D01*
X85833168Y-101091472D01*
X85593459Y-101180878D01*
X85593448Y-101180882D01*
X85589311Y-101182426D01*
X85585429Y-101184545D01*
X85585424Y-101184548D01*
X85360883Y-101307157D01*
X85360875Y-101307161D01*
X85356989Y-101309284D01*
X85353439Y-101311941D01*
X85353435Y-101311944D01*
X85164310Y-101453521D01*
X85116358Y-101475420D01*
X85063642Y-101475420D01*
X85015690Y-101453521D01*
X84826564Y-101311944D01*
X84823011Y-101309284D01*
X84590689Y-101182426D01*
X84586546Y-101180880D01*
X84586540Y-101180878D01*
X84346831Y-101091472D01*
X84342678Y-101089923D01*
X84338346Y-101088980D01*
X84338344Y-101088980D01*
X84088359Y-101034599D01*
X84088351Y-101034597D01*
X84084026Y-101033657D01*
X84079612Y-101033341D01*
X84079603Y-101033340D01*
X83824418Y-101015089D01*
X83820000Y-101014773D01*
X83815582Y-101015089D01*
X83560396Y-101033340D01*
X83560385Y-101033341D01*
X83555974Y-101033657D01*
X83551650Y-101034597D01*
X83551640Y-101034599D01*
X83301655Y-101088980D01*
X83301649Y-101088981D01*
X83297322Y-101089923D01*
X83293172Y-101091470D01*
X83293168Y-101091472D01*
X83053459Y-101180878D01*
X83053448Y-101180882D01*
X83049311Y-101182426D01*
X83045429Y-101184545D01*
X83045424Y-101184548D01*
X82820883Y-101307157D01*
X82820875Y-101307161D01*
X82816989Y-101309284D01*
X82813439Y-101311941D01*
X82813435Y-101311944D01*
X82624310Y-101453521D01*
X82576358Y-101475420D01*
X82523642Y-101475420D01*
X82475690Y-101453521D01*
X82286564Y-101311944D01*
X82283011Y-101309284D01*
X82050689Y-101182426D01*
X82046546Y-101180880D01*
X82046540Y-101180878D01*
X81806831Y-101091472D01*
X81802678Y-101089923D01*
X81798346Y-101088980D01*
X81798344Y-101088980D01*
X81548359Y-101034599D01*
X81548351Y-101034597D01*
X81544026Y-101033657D01*
X81539612Y-101033341D01*
X81539603Y-101033340D01*
X81284418Y-101015089D01*
X81280000Y-101014773D01*
X81275582Y-101015089D01*
X81020396Y-101033340D01*
X81020385Y-101033341D01*
X81015974Y-101033657D01*
X81011650Y-101034597D01*
X81011640Y-101034599D01*
X80761655Y-101088980D01*
X80761649Y-101088981D01*
X80757322Y-101089923D01*
X80753172Y-101091470D01*
X80753168Y-101091472D01*
X80513459Y-101180878D01*
X80513448Y-101180882D01*
X80509311Y-101182426D01*
X80505429Y-101184545D01*
X80505424Y-101184548D01*
X80280883Y-101307157D01*
X80280875Y-101307161D01*
X80276989Y-101309284D01*
X80273439Y-101311941D01*
X80273435Y-101311944D01*
X80084310Y-101453521D01*
X80036358Y-101475420D01*
X79983642Y-101475420D01*
X79935690Y-101453521D01*
X79746564Y-101311944D01*
X79743011Y-101309284D01*
X79510689Y-101182426D01*
X79506546Y-101180880D01*
X79506540Y-101180878D01*
X79266831Y-101091472D01*
X79262678Y-101089923D01*
X79258346Y-101088980D01*
X79258344Y-101088980D01*
X79008359Y-101034599D01*
X79008351Y-101034597D01*
X79004026Y-101033657D01*
X78999612Y-101033341D01*
X78999603Y-101033340D01*
X78744418Y-101015089D01*
X78740000Y-101014773D01*
X78735582Y-101015089D01*
X78480396Y-101033340D01*
X78480385Y-101033341D01*
X78475974Y-101033657D01*
X78471650Y-101034597D01*
X78471640Y-101034599D01*
X78221655Y-101088980D01*
X78221649Y-101088981D01*
X78217322Y-101089923D01*
X78213172Y-101091470D01*
X78213168Y-101091472D01*
X77973459Y-101180878D01*
X77973448Y-101180882D01*
X77969311Y-101182426D01*
X77965429Y-101184545D01*
X77965424Y-101184548D01*
X77740883Y-101307157D01*
X77740875Y-101307161D01*
X77736989Y-101309284D01*
X77733439Y-101311941D01*
X77733435Y-101311944D01*
X77544310Y-101453521D01*
X77496358Y-101475420D01*
X77443642Y-101475420D01*
X77395690Y-101453521D01*
X77206564Y-101311944D01*
X77203011Y-101309284D01*
X76970689Y-101182426D01*
X76966546Y-101180880D01*
X76966540Y-101180878D01*
X76726831Y-101091472D01*
X76722678Y-101089923D01*
X76718346Y-101088980D01*
X76718344Y-101088980D01*
X76468359Y-101034599D01*
X76468351Y-101034597D01*
X76464026Y-101033657D01*
X76459612Y-101033341D01*
X76459603Y-101033340D01*
X76204418Y-101015089D01*
X76200000Y-101014773D01*
X76195582Y-101015089D01*
X75940396Y-101033340D01*
X75940385Y-101033341D01*
X75935974Y-101033657D01*
X75931650Y-101034597D01*
X75931640Y-101034599D01*
X75681655Y-101088980D01*
X75681649Y-101088981D01*
X75677322Y-101089923D01*
X75673172Y-101091470D01*
X75673168Y-101091472D01*
X75433459Y-101180878D01*
X75433448Y-101180882D01*
X75429311Y-101182426D01*
X75425429Y-101184545D01*
X75425424Y-101184548D01*
X75200883Y-101307157D01*
X75200875Y-101307161D01*
X75196989Y-101309284D01*
X75193439Y-101311941D01*
X75193435Y-101311944D01*
X75004310Y-101453521D01*
X74956358Y-101475420D01*
X74903642Y-101475420D01*
X74855690Y-101453521D01*
X74666564Y-101311944D01*
X74663011Y-101309284D01*
X74430689Y-101182426D01*
X74426546Y-101180880D01*
X74426540Y-101180878D01*
X74186831Y-101091472D01*
X74182678Y-101089923D01*
X74178346Y-101088980D01*
X74178344Y-101088980D01*
X73928359Y-101034599D01*
X73928351Y-101034597D01*
X73924026Y-101033657D01*
X73919612Y-101033341D01*
X73919603Y-101033340D01*
X73664418Y-101015089D01*
X73660000Y-101014773D01*
X73655582Y-101015089D01*
X73400396Y-101033340D01*
X73400385Y-101033341D01*
X73395974Y-101033657D01*
X73391650Y-101034597D01*
X73391640Y-101034599D01*
X73141655Y-101088980D01*
X73141649Y-101088981D01*
X73137322Y-101089923D01*
X73133172Y-101091470D01*
X73133168Y-101091472D01*
X72893459Y-101180878D01*
X72893448Y-101180882D01*
X72889311Y-101182426D01*
X72885429Y-101184545D01*
X72885424Y-101184548D01*
X72660883Y-101307157D01*
X72660875Y-101307161D01*
X72656989Y-101309284D01*
X72653439Y-101311941D01*
X72653435Y-101311944D01*
X72464310Y-101453521D01*
X72416358Y-101475420D01*
X72363642Y-101475420D01*
X72315690Y-101453521D01*
X72126564Y-101311944D01*
X72123011Y-101309284D01*
X71890689Y-101182426D01*
X71886546Y-101180880D01*
X71886540Y-101180878D01*
X71646831Y-101091472D01*
X71642678Y-101089923D01*
X71638346Y-101088980D01*
X71638344Y-101088980D01*
X71388359Y-101034599D01*
X71388351Y-101034597D01*
X71384026Y-101033657D01*
X71379612Y-101033341D01*
X71379603Y-101033340D01*
X71124418Y-101015089D01*
X71120000Y-101014773D01*
X71115582Y-101015089D01*
X70860396Y-101033340D01*
X70860385Y-101033341D01*
X70855974Y-101033657D01*
X70851650Y-101034597D01*
X70851640Y-101034599D01*
X70601655Y-101088980D01*
X70601649Y-101088981D01*
X70597322Y-101089923D01*
X70593172Y-101091470D01*
X70593168Y-101091472D01*
X70353459Y-101180878D01*
X70353448Y-101180882D01*
X70349311Y-101182426D01*
X70345429Y-101184545D01*
X70345424Y-101184548D01*
X70120883Y-101307157D01*
X70120875Y-101307161D01*
X70116989Y-101309284D01*
X70113439Y-101311941D01*
X70113435Y-101311944D01*
X69924310Y-101453521D01*
X69876358Y-101475420D01*
X69823642Y-101475420D01*
X69775690Y-101453521D01*
X69586564Y-101311944D01*
X69583011Y-101309284D01*
X69350689Y-101182426D01*
X69346546Y-101180880D01*
X69346540Y-101180878D01*
X69106831Y-101091472D01*
X69102678Y-101089923D01*
X69098346Y-101088980D01*
X69098344Y-101088980D01*
X68848359Y-101034599D01*
X68848351Y-101034597D01*
X68844026Y-101033657D01*
X68839612Y-101033341D01*
X68839603Y-101033340D01*
X68584418Y-101015089D01*
X68580000Y-101014773D01*
X68575582Y-101015089D01*
X68320396Y-101033340D01*
X68320385Y-101033341D01*
X68315974Y-101033657D01*
X68311650Y-101034597D01*
X68311640Y-101034599D01*
X68061655Y-101088980D01*
X68061649Y-101088981D01*
X68057322Y-101089923D01*
X68053172Y-101091470D01*
X68053168Y-101091472D01*
X67813459Y-101180878D01*
X67813448Y-101180882D01*
X67809311Y-101182426D01*
X67805429Y-101184545D01*
X67805424Y-101184548D01*
X67580883Y-101307157D01*
X67580875Y-101307161D01*
X67576989Y-101309284D01*
X67573439Y-101311941D01*
X67573435Y-101311944D01*
X67384310Y-101453521D01*
X67336358Y-101475420D01*
X67283642Y-101475420D01*
X67235690Y-101453521D01*
X67046564Y-101311944D01*
X67043011Y-101309284D01*
X66810689Y-101182426D01*
X66806546Y-101180880D01*
X66806540Y-101180878D01*
X66566831Y-101091472D01*
X66562678Y-101089923D01*
X66558346Y-101088980D01*
X66558344Y-101088980D01*
X66308359Y-101034599D01*
X66308351Y-101034597D01*
X66304026Y-101033657D01*
X66299612Y-101033341D01*
X66299603Y-101033340D01*
X66044418Y-101015089D01*
X66040000Y-101014773D01*
X66035582Y-101015089D01*
X65780396Y-101033340D01*
X65780385Y-101033341D01*
X65775974Y-101033657D01*
X65771650Y-101034597D01*
X65771640Y-101034599D01*
X65521655Y-101088980D01*
X65521649Y-101088981D01*
X65517322Y-101089923D01*
X65513172Y-101091470D01*
X65513168Y-101091472D01*
X65273459Y-101180878D01*
X65273448Y-101180882D01*
X65269311Y-101182426D01*
X65265429Y-101184545D01*
X65265424Y-101184548D01*
X65040883Y-101307157D01*
X65040875Y-101307161D01*
X65036989Y-101309284D01*
X65033439Y-101311941D01*
X65033435Y-101311944D01*
X64844310Y-101453521D01*
X64796358Y-101475420D01*
X64743642Y-101475420D01*
X64695690Y-101453521D01*
X64506564Y-101311944D01*
X64503011Y-101309284D01*
X64270689Y-101182426D01*
X64266546Y-101180880D01*
X64266540Y-101180878D01*
X64026831Y-101091472D01*
X64022678Y-101089923D01*
X64018346Y-101088980D01*
X64018344Y-101088980D01*
X63768359Y-101034599D01*
X63768351Y-101034597D01*
X63764026Y-101033657D01*
X63759612Y-101033341D01*
X63759603Y-101033340D01*
X63504418Y-101015089D01*
X63500000Y-101014773D01*
X63495582Y-101015089D01*
X63240396Y-101033340D01*
X63240385Y-101033341D01*
X63235974Y-101033657D01*
X63231650Y-101034597D01*
X63231640Y-101034599D01*
X62981655Y-101088980D01*
X62981649Y-101088981D01*
X62977322Y-101089923D01*
X62973172Y-101091470D01*
X62973168Y-101091472D01*
X62733459Y-101180878D01*
X62733448Y-101180882D01*
X62729311Y-101182426D01*
X62725429Y-101184545D01*
X62725424Y-101184548D01*
X62500883Y-101307157D01*
X62500875Y-101307161D01*
X62496989Y-101309284D01*
X62493439Y-101311941D01*
X62493435Y-101311944D01*
X62288639Y-101465252D01*
X62288637Y-101465254D01*
X62285085Y-101467913D01*
X62281955Y-101471042D01*
X62281941Y-101471055D01*
X62197168Y-101555827D01*
X62152822Y-101584327D01*
X62100644Y-101591829D01*
X62050065Y-101576979D01*
X62043782Y-101573549D01*
X61924641Y-101529111D01*
X61909667Y-101525573D01*
X61861114Y-101520353D01*
X61854518Y-101520000D01*
X61226326Y-101520000D01*
X61213450Y-101523450D01*
X61210000Y-101536326D01*
X61210000Y-104203674D01*
X60710000Y-104203674D01*
X60710000Y-103136326D01*
X60706549Y-103123450D01*
X60693674Y-103120000D01*
X59626326Y-103120000D01*
X59613450Y-103123450D01*
X59610000Y-103136326D01*
X59610000Y-103764518D01*
X50300500Y-103764518D01*
X50300500Y-101500000D01*
X51494390Y-101500000D01*
X51494706Y-101504418D01*
X51514487Y-101781005D01*
X51514488Y-101781014D01*
X51514804Y-101785428D01*
X51515744Y-101789753D01*
X51515746Y-101789761D01*
X51569111Y-102035075D01*
X51575631Y-102065046D01*
X51577175Y-102069185D01*
X51577176Y-102069189D01*
X51613317Y-102166088D01*
X51675633Y-102333161D01*
X51677753Y-102337043D01*
X51677756Y-102337050D01*
X51782922Y-102529646D01*
X51812774Y-102584315D01*
X51984261Y-102813395D01*
X52186605Y-103015739D01*
X52415685Y-103187226D01*
X52666839Y-103324367D01*
X52934954Y-103424369D01*
X53214572Y-103485196D01*
X53500000Y-103505610D01*
X53785428Y-103485196D01*
X54065046Y-103424369D01*
X54333161Y-103324367D01*
X54584315Y-103187226D01*
X54813395Y-103015739D01*
X55015739Y-102813395D01*
X55172734Y-102603674D01*
X59610000Y-102603674D01*
X59613450Y-102616549D01*
X59626326Y-102620000D01*
X60693674Y-102620000D01*
X60706549Y-102616549D01*
X60710000Y-102603674D01*
X60710000Y-101536326D01*
X60706549Y-101523450D01*
X60693674Y-101520000D01*
X60065482Y-101520000D01*
X60058885Y-101520353D01*
X60010332Y-101525573D01*
X59995358Y-101529111D01*
X59876222Y-101573547D01*
X59860810Y-101581962D01*
X59759907Y-101657498D01*
X59747498Y-101669907D01*
X59671962Y-101770810D01*
X59663547Y-101786222D01*
X59619111Y-101905358D01*
X59615573Y-101920332D01*
X59610353Y-101968885D01*
X59610000Y-101975482D01*
X59610000Y-102603674D01*
X55172734Y-102603674D01*
X55187226Y-102584315D01*
X55324367Y-102333161D01*
X55424369Y-102065046D01*
X55485196Y-101785428D01*
X55505610Y-101500000D01*
X55485196Y-101214572D01*
X55424369Y-100934954D01*
X55324367Y-100666839D01*
X55187226Y-100415685D01*
X55015739Y-100186605D01*
X54813395Y-99984261D01*
X54584315Y-99812774D01*
X54580420Y-99810647D01*
X54337050Y-99677756D01*
X54337043Y-99677753D01*
X54333161Y-99675633D01*
X54329017Y-99674087D01*
X54329012Y-99674085D01*
X54069189Y-99577176D01*
X54069185Y-99577175D01*
X54065046Y-99575631D01*
X54035075Y-99569111D01*
X53789761Y-99515746D01*
X53789753Y-99515744D01*
X53785428Y-99514804D01*
X53781014Y-99514488D01*
X53781005Y-99514487D01*
X53504418Y-99494706D01*
X53500000Y-99494390D01*
X53495582Y-99494706D01*
X53218994Y-99514487D01*
X53218983Y-99514488D01*
X53214572Y-99514804D01*
X53210248Y-99515744D01*
X53210238Y-99515746D01*
X52939279Y-99574690D01*
X52939276Y-99574690D01*
X52934954Y-99575631D01*
X52930818Y-99577173D01*
X52930810Y-99577176D01*
X52670987Y-99674085D01*
X52670976Y-99674089D01*
X52666839Y-99675633D01*
X52662961Y-99677750D01*
X52662949Y-99677756D01*
X52419579Y-99810647D01*
X52419571Y-99810651D01*
X52415685Y-99812774D01*
X52412135Y-99815431D01*
X52412131Y-99815434D01*
X52190156Y-99981602D01*
X52190149Y-99981607D01*
X52186605Y-99984261D01*
X52183474Y-99987391D01*
X52183467Y-99987398D01*
X51987398Y-100183467D01*
X51987391Y-100183474D01*
X51984261Y-100186605D01*
X51981607Y-100190149D01*
X51981602Y-100190156D01*
X51960478Y-100218375D01*
X51812774Y-100415685D01*
X51810651Y-100419571D01*
X51810647Y-100419579D01*
X51677756Y-100662949D01*
X51677750Y-100662961D01*
X51675633Y-100666839D01*
X51674089Y-100670976D01*
X51674085Y-100670987D01*
X51577176Y-100930810D01*
X51577173Y-100930818D01*
X51575631Y-100934954D01*
X51574690Y-100939276D01*
X51574690Y-100939279D01*
X51515746Y-101210238D01*
X51515744Y-101210248D01*
X51514804Y-101214572D01*
X51514488Y-101218983D01*
X51514487Y-101218994D01*
X51496460Y-101471055D01*
X51494390Y-101500000D01*
X50300500Y-101500000D01*
X50300500Y-98424500D01*
X50317113Y-98362500D01*
X50362500Y-98317113D01*
X50424500Y-98300500D01*
X96575500Y-98300500D01*
X96637500Y-98317113D01*
G37*
G04 #@! TD.AperFunction*
M02*
